<svg width="32" height="32" viewBox="0 0 32 32" fill="none" xmlns="http://www.w3.org/2000/svg">
<path d="M28.0054 10.6334V8.00002C28.0054 5.05869 25.6134 2.66669 22.672 2.66669H9.33869C6.39735 2.66669 4.00535 5.05869 4.00535 8.00002V10.664L3.90402 10.6694C3.56775 10.6936 3.25317 10.8444 3.02359 11.0913C2.79401 11.3382 2.66649 11.6629 2.66669 12V14.6667C2.66669 15.0203 2.80716 15.3594 3.05721 15.6095C3.30726 15.8595 3.6464 16 4.00002 16H4.00535V24C4.00535 24.98 4.54269 25.8294 5.33335 26.2934V28C5.33335 28.3536 5.47383 28.6928 5.72388 28.9428C5.97393 29.1929 6.31307 29.3334 6.66669 29.3334H8.00002C8.35364 29.3334 8.69278 29.1929 8.94283 28.9428C9.19288 28.6928 9.33335 28.3536 9.33335 28V26.6667H22.6667V28C22.6667 28.3536 22.8072 28.6928 23.0572 28.9428C23.3073 29.1929 23.6464 29.3334 24 29.3334H25.3334C25.687 29.3334 26.0261 29.1929 26.2762 28.9428C26.5262 28.6928 26.6667 28.3536 26.6667 28V26.2987C27.072 26.0668 27.4092 25.7323 27.6442 25.3288C27.8792 24.9253 28.0037 24.467 28.0054 24V16C28.359 16 28.6981 15.8595 28.9482 15.6095C29.1982 15.3594 29.3387 15.0203 29.3387 14.6667V12.0827C29.354 11.8758 29.3212 11.6681 29.2427 11.476C28.972 10.8267 28.396 10.6707 28.0054 10.6334ZM25.3414 24H6.67202V17.3334H25.34L25.3414 24ZM14.672 9.33335V14.6667H6.67202V9.33335H14.672ZM25.3387 9.33335V14.6667H17.3387V9.33335H25.3387ZM9.33869 5.33335H22.672C23.6534 5.33335 24.5054 5.87335 24.968 6.66669H7.04269C7.50535 5.87335 8.35735 5.33335 9.33869 5.33335Z" fill="#F7941E"/>
<path d="M10 22.6667C11.1046 22.6667 12 21.7713 12 20.6667C12 19.5621 11.1046 18.6667 10 18.6667C8.89543 18.6667 8 19.5621 8 20.6667C8 21.7713 8.89543 22.6667 10 22.6667Z" fill="#F7941E"/>
<path d="M22 22.6667C23.1046 22.6667 24 21.7713 24 20.6667C24 19.5621 23.1046 18.6667 22 18.6667C20.8954 18.6667 20 19.5621 20 20.6667C20 21.7713 20.8954 22.6667 22 22.6667Z" fill="#F7941E"/>
</svg>
