<svg width="80" height="80" viewBox="0 0 80 80" fill="none" xmlns="http://www.w3.org/2000/svg">
<path opacity="0.3" fill-rule="evenodd" clip-rule="evenodd" d="M40 80C62.0914 80 80 62.0914 80 40C80 17.9086 62.0914 0 40 0C17.9086 0 0 17.9086 0 40C0 62.0914 17.9086 80 40 80Z" fill="white"/>
<path fill-rule="evenodd" clip-rule="evenodd" d="M76.0919 63.6054H26.2594C24.302 63.6054 22.7148 62.0182 22.7148 60.0608V34.7584C22.7148 32.8 24.302 31.2128 26.2594 31.2128H76.0919C78.0492 31.2128 79.6364 32.8 79.6364 34.7584V60.0608C79.6364 62.0182 78.0492 63.6054 76.0919 63.6054Z" fill="#DFE3F7"/>
<mask id="mask0" mask-type="alpha" maskUnits="userSpaceOnUse" x="0" y="15" width="80" height="49">
<path fill-rule="evenodd" clip-rule="evenodd" d="M0 63.6062H79.6373V15.9998H0V63.6062Z" fill="white"/>
</mask>
<g mask="url(#mask0)">
<path fill-rule="evenodd" clip-rule="evenodd" d="M28.752 47.171H51.8229V45.8771H28.752V47.171Z" fill="#B1B2F3"/>
<path fill-rule="evenodd" clip-rule="evenodd" d="M28.752 50.0287H51.8229V48.7348H28.752V50.0287Z" fill="#B1B2F3"/>
<path fill-rule="evenodd" clip-rule="evenodd" d="M28.752 52.8888H51.8229V51.5949H28.752V52.8888Z" fill="#B1B2F3"/>
<path fill-rule="evenodd" clip-rule="evenodd" d="M28.752 55.7477H43.4944V54.4538H28.752V55.7477Z" fill="#B1B2F3"/>
<path fill-rule="evenodd" clip-rule="evenodd" d="M22.7147 41.8342H79.6363V35.6891H22.7147V41.8342Z" fill="#56548C"/>
<path fill-rule="evenodd" clip-rule="evenodd" d="M73.7401 55.4871C73.1513 56.5537 72.2084 57.3964 71.0585 57.8401C71.3359 57.3473 71.6601 56.5815 71.8735 55.4871H73.7401ZM72.1007 53.1653H74.3876C74.3609 53.8544 74.1913 54.5029 73.9257 55.0991H71.9364C72.0271 54.5317 72.0911 53.8949 72.1007 53.1653ZM71.7146 52.7786H69.3978V50.8447H71.5546C71.6442 51.4122 71.706 52.0511 71.7146 52.7786ZM69.3978 53.1653H71.7124C71.7039 53.8949 71.641 54.5327 71.5492 55.0991H69.3978V53.1653ZM71.482 55.4871C71.2452 56.7031 70.8687 57.5212 70.5786 57.9991C70.201 58.1047 69.8052 58.1601 69.3978 58.1783V55.4871H71.482ZM69.0106 55.4871V58.1857C68.6053 58.174 68.2138 58.1089 67.8362 58.0087C67.545 57.5319 67.1653 56.7105 66.9274 55.4871H69.0106ZM66.5358 55.4871C66.7513 56.5921 67.082 57.3655 67.3593 57.8572C66.1838 57.4188 65.2142 56.5697 64.6158 55.4871H66.5358ZM66.4719 55.0991H64.4303C64.1625 54.5029 63.9908 53.8544 63.9652 53.1653H66.3087C66.3183 53.8949 66.3812 54.5317 66.4719 55.0991ZM66.3076 52.7786H63.9695C63.994 52.0906 64.1497 51.4389 64.4164 50.8447H66.4676C66.3769 51.4122 66.3172 52.0511 66.3076 52.7786ZM64.6096 50.459C65.208 49.3763 66.1776 48.5315 67.3477 48.092C67.0725 48.5902 66.7461 49.3646 66.5328 50.459H64.6096ZM67.8234 47.9401C68.2042 47.8367 68.601 47.7727 69.0106 47.7588V50.4585H66.9189C67.1557 49.2436 67.5333 48.4265 67.8234 47.9401ZM66.8549 50.8447H69.0106V52.7786H66.6938C66.7034 52.0511 66.7642 51.4122 66.8549 50.8447ZM66.8591 55.0991C66.7685 54.5327 66.7055 53.8949 66.6959 53.1653H69.0106V55.0991H66.8591ZM69.3978 50.4584V47.7576C69.8095 47.7757 70.2095 47.8418 70.5914 47.9496C70.8794 48.436 71.2548 49.2498 71.4906 50.4584H69.3978ZM71.0693 48.1079C72.2149 48.5527 73.1535 49.3943 73.7434 50.4578H71.8757C71.6655 49.3751 71.3423 48.606 71.0693 48.1079ZM71.9417 50.8447H73.9375C74.2041 51.4399 74.3641 52.0906 74.3919 52.7786H72.1028C72.0921 52.0511 72.0324 51.4111 71.9417 50.8447Z" fill="#B1B2F3"/>
<path fill-rule="evenodd" clip-rule="evenodd" d="M55.8752 49.533H3.05173C1.36533 49.533 0 48.1666 0 46.4823V19.0508C0 17.3666 1.36533 16.0002 3.05173 16.0002H55.8752C57.5605 16.0002 58.9259 17.3666 58.9259 19.0508V46.4823C58.9259 48.1666 57.5605 49.533 55.8752 49.533Z" fill="#606BF1"/>
<path fill-rule="evenodd" clip-rule="evenodd" d="M58.9263 31.9788V28.3575C57.5247 27.0124 55.8745 25.9276 54.0281 25.2119C54.8164 26.6455 55.7444 28.8599 56.3513 31.9788H58.9263Z" fill="#878CF0"/>
<path fill-rule="evenodd" clip-rule="evenodd" d="M48.1003 45.345V39.7748H41.4347C41.4635 41.8772 41.6437 43.714 41.9029 45.345H48.1003Z" fill="#878CF0"/>
<path fill-rule="evenodd" clip-rule="evenodd" d="M48.1002 33.0903H41.8933C41.6309 34.7244 41.457 36.5676 41.4282 38.6604H48.1002V33.0903Z" fill="#878CF0"/>
<path fill-rule="evenodd" clip-rule="evenodd" d="M43.3122 25.1642C39.9405 26.4282 37.1501 28.8624 35.4274 31.9792H40.9624C41.58 28.8282 42.5176 26.5957 43.3122 25.1642Z" fill="#878CF0"/>
<path fill-rule="evenodd" clip-rule="evenodd" d="M55.4242 33.0903H49.2151V38.6604H55.886C55.8615 36.5676 55.6844 34.7244 55.4242 33.0903Z" fill="#878CF0"/>
<path fill-rule="evenodd" clip-rule="evenodd" d="M33.582 38.6604H40.3169C40.3425 36.5676 40.5164 34.7244 40.7766 33.0903H34.8705C34.1014 34.8001 33.6545 36.6817 33.582 38.6604Z" fill="#878CF0"/>
<path fill-rule="evenodd" clip-rule="evenodd" d="M49.2147 45.345H55.4121C55.6745 43.714 55.8547 41.8772 55.8803 39.7748H49.2147V45.345Z" fill="#878CF0"/>
<path fill-rule="evenodd" clip-rule="evenodd" d="M49.2147 24.2011V31.9782H55.2403C54.563 28.4976 53.4825 26.1552 52.6537 24.7515C51.5518 24.4422 50.4019 24.2544 49.2147 24.2011Z" fill="#878CF0"/>
<path fill-rule="evenodd" clip-rule="evenodd" d="M56.5419 33.0903C56.8022 34.7212 56.9729 36.5676 57.0049 38.6604H58.9259V33.0903H56.5419Z" fill="#878CF0"/>
<path fill-rule="evenodd" clip-rule="evenodd" d="M55.2185 46.4594H49.2153V49.5325H54.4366C54.7246 48.6237 54.9945 47.6093 55.2185 46.4594Z" fill="#878CF0"/>
<path fill-rule="evenodd" clip-rule="evenodd" d="M58.8727 46.4594H56.3457C56.1239 47.5965 55.8593 48.6077 55.5745 49.5069C57.2673 49.3874 58.6273 48.1127 58.8727 46.4594Z" fill="#878CF0"/>
<path fill-rule="evenodd" clip-rule="evenodd" d="M56.9981 39.7748C56.9693 41.8772 56.7859 43.7108 56.5267 45.345H58.9267V39.7748H56.9981Z" fill="#878CF0"/>
<path fill-rule="evenodd" clip-rule="evenodd" d="M40.7888 45.345C40.5286 43.7108 40.3483 41.8772 40.3206 39.7748H33.5718C33.6454 41.761 34.1392 43.6287 34.9115 45.345H40.7888Z" fill="#878CF0"/>
<path fill-rule="evenodd" clip-rule="evenodd" d="M48.1 46.4594H42.1C42.324 47.6093 42.5928 48.6237 42.8808 49.5325H48.1V46.4594Z" fill="#878CF0"/>
<path fill-rule="evenodd" clip-rule="evenodd" d="M48.1002 24.2048C46.9194 24.2432 45.776 24.4288 44.6805 24.7274C43.8442 26.1269 42.7584 28.4789 42.0778 31.9786H48.1002V24.2048Z" fill="#878CF0"/>
<path fill-rule="evenodd" clip-rule="evenodd" d="M40.9725 46.4594H35.4429C36.0637 47.5805 36.8253 48.6098 37.6989 49.5325H41.7512C41.4643 48.6258 41.1955 47.6071 40.9725 46.4594Z" fill="#878CF0"/>
<path fill-rule="evenodd" clip-rule="evenodd" d="M12.4993 23.3665C12.4993 25.0923 11.0998 26.4907 9.375 26.4907C7.64913 26.4907 6.24966 25.0923 6.24966 23.3665C6.24966 21.6406 7.64913 20.2411 9.375 20.2411C11.0998 20.2411 12.4993 21.6406 12.4993 23.3665Z" fill="#E9E5D9"/>
<path fill-rule="evenodd" clip-rule="evenodd" d="M15.6243 23.3665C15.6243 25.0923 14.2248 26.4907 12.4989 26.4907C10.7741 26.4907 9.37466 25.0923 9.37466 23.3665C9.37466 21.6406 10.7741 20.2411 12.4989 20.2411C14.2248 20.2411 15.6243 21.6406 15.6243 23.3665Z" fill="#FBD15B"/>
<path fill-rule="evenodd" clip-rule="evenodd" d="M18.7492 23.3665C18.7492 25.0923 17.3497 26.4907 15.6238 26.4907C13.899 26.4907 12.4996 25.0923 12.4996 23.3665C12.4996 21.6406 13.899 20.2411 15.6238 20.2411C17.3497 20.2411 18.7492 21.6406 18.7492 23.3665Z" fill="#EC827D"/>
<path fill-rule="evenodd" clip-rule="evenodd" d="M6.24966 38.7502H30.1323V37.4116H6.24966V38.7502Z" fill="#B1B2F3"/>
<path fill-rule="evenodd" clip-rule="evenodd" d="M6.24966 42.2842H18.4982V40.9455H6.24966V42.2842Z" fill="#B1B2F3"/>
</g>
</svg>
