<svg width="32" height="32" viewBox="0 0 32 32" fill="none" xmlns="http://www.w3.org/2000/svg">
<path d="M16 14.4C16.5274 14.4 17.043 14.2436 17.4815 13.9506C17.9201 13.6576 18.2619 13.2411 18.4637 12.7538C18.6655 12.2666 18.7183 11.7304 18.6154 11.2131C18.5125 10.6958 18.2586 10.2207 17.8856 9.84773C17.5127 9.47479 17.0375 9.22082 16.5203 9.11792C16.003 9.01503 15.4668 9.06784 14.9795 9.26967C14.4923 9.4715 14.0758 9.8133 13.7828 10.2518C13.4897 10.6904 13.3333 11.2059 13.3333 11.7333C13.3333 12.4406 13.6143 13.1189 14.1144 13.619C14.6145 14.1191 15.2928 14.4 16 14.4ZM15.0533 23.6133C15.1773 23.7383 15.3248 23.8375 15.4872 23.9052C15.6497 23.9729 15.824 24.0077 16 24.0077C16.176 24.0077 16.3503 23.9729 16.5128 23.9052C16.6753 23.8375 16.8227 23.7383 16.9467 23.6133L22.4 18.1467C23.6666 16.8807 24.5293 15.2676 24.879 13.5113C25.2287 11.755 25.0497 9.93442 24.3647 8.27987C23.6796 6.62531 22.5192 5.2111 21.0303 4.21609C19.5413 3.22109 17.7908 2.69 16 2.69C14.2092 2.69 12.4587 3.22109 10.9698 4.21609C9.48084 5.2111 8.32045 6.62531 7.63537 8.27987C6.95028 9.93442 6.77127 11.755 7.12098 13.5113C7.47069 15.2676 8.33341 16.8807 9.60001 18.1467L15.0533 23.6133ZM9.64001 11.12C9.73111 10.1694 10.0334 9.25107 10.5247 8.43217C11.0161 7.61326 11.6841 6.91443 12.48 6.38668C13.5256 5.70015 14.7492 5.33436 16 5.33436C17.2509 5.33436 18.4744 5.70015 19.52 6.38668C20.3106 6.91262 20.9749 7.60722 21.465 8.42053C21.9551 9.23384 22.2589 10.1457 22.3545 11.0904C22.4501 12.0351 22.3352 12.9893 22.018 13.8844C21.7008 14.7794 21.1892 15.593 20.52 16.2667L16 20.7867L11.48 16.2667C10.81 15.5995 10.2972 14.7914 9.97895 13.9011C9.66065 13.0108 9.54487 12.0607 9.64001 11.12ZM25.3333 26.6667H6.66668C6.31305 26.6667 5.97392 26.8072 5.72387 27.0572C5.47382 27.3073 5.33334 27.6464 5.33334 28C5.33334 28.3536 5.47382 28.6928 5.72387 28.9428C5.97392 29.1929 6.31305 29.3334 6.66668 29.3334H25.3333C25.687 29.3334 26.0261 29.1929 26.2762 28.9428C26.5262 28.6928 26.6667 28.3536 26.6667 28C26.6667 27.6464 26.5262 27.3073 26.2762 27.0572C26.0261 26.8072 25.687 26.6667 25.3333 26.6667Z" fill="#F7941E"/>
</svg>
