<svg width="80" height="80" viewBox="0 0 80 80" fill="none" xmlns="http://www.w3.org/2000/svg">
<path opacity="0.3" fill-rule="evenodd" clip-rule="evenodd" d="M40 80C62.0914 80 80 62.0914 80 40C80 17.9086 62.0914 0 40 0C17.9086 0 0 17.9086 0 40C0 62.0914 17.9086 80 40 80Z" fill="white"/>
<g opacity="0.4">
<path opacity="0.4" d="M53.3407 29.1332L52.5978 28.8034L50.5114 27.8765L47.3142 26.4636C47.2691 26.4428 47.2274 26.422 47.1858 26.3907L44.6169 25.9915L44.4329 25.9637C44.0615 25.9811 43.7143 25.9915 43.3811 25.9915C42.0029 25.9915 40.9372 25.8284 40.1214 25.5645C39.1598 25.2556 38.5384 24.7973 38.1426 24.2905C36.9762 22.8012 37.7885 20.8746 37.7885 20.8746L46.3804 20.1525L49.2652 20.5691L49.3103 20.5656C49.5082 20.5656 49.6991 20.6003 49.8796 20.6802L53.1532 22.1347" fill="#415659"/>
<path opacity="0.4" d="M52.4208 45.7856L53.2886 32.4344L52.9866 32.8856C52.9866 31.0944 51.6883 29.0462 50.5115 27.8729L52.5978 28.7963L54.9931 29.8585L56.656 35.3538C56.6594 35.3573 52.997 39.8112 52.4208 45.7856Z" fill="#415659"/>
<path opacity="0.4" d="M40.9824 56.9111H32.998C30.016 56.9111 27.5999 54.4949 27.5999 51.513V8.99803C27.5999 6.01605 30.016 3.59991 32.998 3.59991H40.9824" fill="#415659"/>
<path opacity="0.4" d="M40.9824 3.60059H49.1924C52.1744 3.60059 54.5905 6.01672 54.5905 8.9987V51.5136C54.5905 54.4956 52.1744 56.9117 49.1924 56.9117H40.9824" fill="#415659"/>
<path opacity="0.4" d="M52.9033 9.44672H29.1724V47.9139H52.9033V9.44672Z" fill="#415659"/>
<path opacity="0.4" d="M43.9088 51.8781C43.9088 53.2597 42.7632 54.381 41.3503 54.381C39.9375 54.381 38.7919 53.2597 38.7919 51.8781C38.7919 50.4965 39.9375 49.3752 41.3503 49.3752C42.7632 49.3752 43.9088 50.4965 43.9088 51.8781Z" fill="#415659"/>
<path opacity="0.4" d="M51.7265 7.31164C51.7265 7.74557 51.3724 8.09966 50.9385 8.09966H31.9288C31.4948 8.09966 31.1407 7.74557 31.1407 7.31164C31.1407 6.87771 31.4948 6.52362 31.9288 6.52362H50.9385C51.3724 6.52362 51.7265 6.87771 51.7265 7.31164Z" fill="#415659"/>
<path opacity="0.4" d="M49.0848 32.5872H48.3488V33.3232H49.0848V32.5872Z" fill="#415659"/>
<path opacity="0.4" d="M49.0848 31.8548H48.3488V32.5907H49.0848V31.8548Z" fill="#415659"/>
<path opacity="0.4" d="M49.0848 31.1153H48.3488V31.8547H49.0848V31.1153Z" fill="#415659"/>
<path opacity="0.4" d="M49.0848 30.3795H48.3488V31.1155H49.0848V30.3795Z" fill="#415659"/>
<path opacity="0.4" d="M49.0848 29.6436H48.3488V30.3795H49.0848V29.6436Z" fill="#415659"/>
<path opacity="0.4" d="M49.0848 28.9073H48.3488V29.6433H49.0848V28.9073Z" fill="#415659"/>
<path opacity="0.4" d="M49.0848 28.175H48.3488V28.9075H49.0848V28.175Z" fill="#415659"/>
<path opacity="0.4" d="M49.0848 27.4357H48.3488V28.1716H49.0848V27.4357Z" fill="#415659"/>
<path opacity="0.4" d="M49.0848 26.6996H48.3488V27.4355H49.0848V26.6996Z" fill="#415659"/>
<path opacity="0.4" d="M49.0848 25.9637H48.3488V26.6996H49.0848V25.9637Z" fill="#415659"/>
<path opacity="0.4" d="M49.0848 25.2277H48.3488V25.9636H49.0848V25.2277Z" fill="#415659"/>
<path opacity="0.4" d="M49.0848 24.4919H48.3488V25.2278H49.0848V24.4919Z" fill="#415659"/>
<path opacity="0.4" d="M49.0848 23.756H48.3488V24.4919H49.0848V23.756Z" fill="#415659"/>
<path opacity="0.4" d="M49.0848 23.0165H48.3488V23.756H49.0848V23.0165Z" fill="#415659"/>
<path opacity="0.4" d="M49.0848 22.2805H48.3488V23.0164H49.0848V22.2805Z" fill="#415659"/>
<path opacity="0.4" d="M49.0848 21.5446H48.3488V22.2805H49.0848V21.5446Z" fill="#415659"/>
<path opacity="0.4" d="M49.0848 20.8086H48.3488V21.5445H49.0848V20.8086Z" fill="#415659"/>
<path opacity="0.4" d="M49.0848 20.076H48.3488V20.8085H49.0848V20.076Z" fill="#415659"/>
<path opacity="0.4" d="M49.0848 19.3369H48.3488V20.0728H49.0848V19.3369Z" fill="#415659"/>
<path opacity="0.4" d="M49.0848 18.6008H48.3488V19.3368H49.0848V18.6008Z" fill="#415659"/>
<path opacity="0.4" d="M49.0848 17.8649H48.3488V18.6008H49.0848V17.8649Z" fill="#415659"/>
<path opacity="0.4" d="M49.0848 17.1288H48.3488V17.8648H49.0848V17.1288Z" fill="#415659"/>
<path opacity="0.4" d="M48.3487 32.5872H47.6128V33.3232H48.3487V32.5872Z" fill="#415659"/>
<path opacity="0.4" d="M48.3487 31.8548H47.6128V32.5907H48.3487V31.8548Z" fill="#415659"/>
<path opacity="0.4" d="M48.3487 31.1153H47.6128V31.8547H48.3487V31.1153Z" fill="#415659"/>
<path opacity="0.4" d="M48.3487 30.3795H47.6128V31.1155H48.3487V30.3795Z" fill="#415659"/>
<path opacity="0.4" d="M48.3487 29.6436H47.6128V30.3795H48.3487V29.6436Z" fill="#415659"/>
<path opacity="0.4" d="M48.3487 28.9073H47.6128V29.6433H48.3487V28.9073Z" fill="#415659"/>
<path opacity="0.4" d="M48.3487 28.175H47.6128V28.9075H48.3487V28.175Z" fill="#415659"/>
<path opacity="0.4" d="M48.3487 27.4357H47.6128V28.1716H48.3487V27.4357Z" fill="#415659"/>
<path opacity="0.4" d="M48.3487 26.6996H47.6128V27.4355H48.3487V26.6996Z" fill="#415659"/>
<path opacity="0.4" d="M48.3487 25.9637H47.6128V26.6996H48.3487V25.9637Z" fill="#415659"/>
<path opacity="0.4" d="M48.3487 25.2277H47.6128V25.9636H48.3487V25.2277Z" fill="#415659"/>
<path opacity="0.4" d="M48.3487 24.4919H47.6128V25.2278H48.3487V24.4919Z" fill="#415659"/>
<path opacity="0.4" d="M48.3487 23.756H47.6128V24.4919H48.3487V23.756Z" fill="#415659"/>
<path opacity="0.4" d="M48.3487 23.0165H47.6128V23.756H48.3487V23.0165Z" fill="#415659"/>
<path opacity="0.4" d="M48.3487 22.2805H47.6128V23.0164H48.3487V22.2805Z" fill="#415659"/>
<path opacity="0.4" d="M48.3487 21.5446H47.6128V22.2805H48.3487V21.5446Z" fill="#415659"/>
<path opacity="0.4" d="M48.3487 20.8086H47.6128V21.5445H48.3487V20.8086Z" fill="#415659"/>
<path opacity="0.4" d="M48.3487 20.076H47.6128V20.8085H48.3487V20.076Z" fill="#415659"/>
<path opacity="0.4" d="M48.3487 19.3369H47.6128V20.0728H48.3487V19.3369Z" fill="#415659"/>
<path opacity="0.4" d="M48.3487 18.6008H47.6128V19.3368H48.3487V18.6008Z" fill="#415659"/>
<path opacity="0.4" d="M48.3487 17.8649H47.6128V18.6008H48.3487V17.8649Z" fill="#415659"/>
<path opacity="0.4" d="M48.3487 17.1288H47.6128V17.8648H48.3487V17.1288Z" fill="#415659"/>
<path opacity="0.4" d="M47.6094 32.5872H46.8699V33.3232H47.6094V32.5872Z" fill="#415659"/>
<path opacity="0.4" d="M47.6094 31.8548H46.8699V32.5907H47.6094V31.8548Z" fill="#415659"/>
<path opacity="0.4" d="M47.6094 31.1153H46.8699V31.8547H47.6094V31.1153Z" fill="#415659"/>
<path opacity="0.4" d="M47.6094 30.3795H46.8699V31.1155H47.6094V30.3795Z" fill="#415659"/>
<path opacity="0.4" d="M47.6094 29.6436H46.8699V30.3795H47.6094V29.6436Z" fill="#415659"/>
<path opacity="0.4" d="M47.6094 28.9073H46.8699V29.6433H47.6094V28.9073Z" fill="#415659"/>
<path opacity="0.4" d="M47.6094 28.175H46.8699V28.9075H47.6094V28.175Z" fill="#415659"/>
<path opacity="0.4" d="M47.6094 27.4357H46.8699V28.1716H47.6094V27.4357Z" fill="#415659"/>
<path opacity="0.4" d="M47.6094 26.6996H46.8699V27.4355H47.6094V26.6996Z" fill="#415659"/>
<path opacity="0.4" d="M47.6094 25.9637H46.8699V26.6996H47.6094V25.9637Z" fill="#415659"/>
<path opacity="0.4" d="M47.6094 25.2277H46.8699V25.9636H47.6094V25.2277Z" fill="#415659"/>
<path opacity="0.4" d="M47.6094 24.4919H46.8699V25.2278H47.6094V24.4919Z" fill="#415659"/>
<path opacity="0.4" d="M47.6094 23.756H46.8699V24.4919H47.6094V23.756Z" fill="#415659"/>
<path opacity="0.4" d="M47.6094 23.0165H46.8699V23.756H47.6094V23.0165Z" fill="#415659"/>
<path opacity="0.4" d="M47.6094 22.2805H46.8699V23.0164H47.6094V22.2805Z" fill="#415659"/>
<path opacity="0.4" d="M47.6094 21.5446H46.8699V22.2805H47.6094V21.5446Z" fill="#415659"/>
<path opacity="0.4" d="M47.6094 20.8086H46.8699V21.5445H47.6094V20.8086Z" fill="#415659"/>
<path opacity="0.4" d="M47.6094 20.076H46.8699V20.8085H47.6094V20.076Z" fill="#415659"/>
<path opacity="0.4" d="M47.6094 19.3369H46.8699V20.0728H47.6094V19.3369Z" fill="#415659"/>
<path opacity="0.4" d="M47.6094 18.6008H46.8699V19.3368H47.6094V18.6008Z" fill="#415659"/>
<path opacity="0.4" d="M47.6094 17.8649H46.8699V18.6008H47.6094V17.8649Z" fill="#415659"/>
<path opacity="0.4" d="M47.6094 17.1288H46.8699V17.8648H47.6094V17.1288Z" fill="#415659"/>
<path opacity="0.4" d="M46.8734 32.5872H46.1375V33.3232H46.8734V32.5872Z" fill="#415659"/>
<path opacity="0.4" d="M46.8734 31.8548H46.1375V32.5907H46.8734V31.8548Z" fill="#415659"/>
<path opacity="0.4" d="M46.8734 31.1153H46.1375V31.8547H46.8734V31.1153Z" fill="#415659"/>
<path opacity="0.4" d="M46.8734 30.3795H46.1375V31.1155H46.8734V30.3795Z" fill="#415659"/>
<path opacity="0.4" d="M46.8734 29.6436H46.1375V30.3795H46.8734V29.6436Z" fill="#415659"/>
<path opacity="0.4" d="M46.8734 28.9073H46.1375V29.6433H46.8734V28.9073Z" fill="#415659"/>
<path opacity="0.4" d="M46.8734 28.175H46.1375V28.9075H46.8734V28.175Z" fill="#415659"/>
<path opacity="0.4" d="M46.8734 27.4357H46.1375V28.1716H46.8734V27.4357Z" fill="#415659"/>
<path opacity="0.4" d="M46.8734 26.6996H46.1375V27.4355H46.8734V26.6996Z" fill="#415659"/>
<path opacity="0.4" d="M46.8734 25.9637H46.1375V26.6996H46.8734V25.9637Z" fill="#415659"/>
<path opacity="0.4" d="M46.8734 25.2277H46.1375V25.9636H46.8734V25.2277Z" fill="#415659"/>
<path opacity="0.4" d="M46.8734 24.4919H46.1375V25.2278H46.8734V24.4919Z" fill="#415659"/>
<path opacity="0.4" d="M46.8734 23.756H46.1375V24.4919H46.8734V23.756Z" fill="#415659"/>
<path opacity="0.4" d="M46.8734 23.0165H46.1375V23.756H46.8734V23.0165Z" fill="#415659"/>
<path opacity="0.4" d="M46.8734 22.2805H46.1375V23.0164H46.8734V22.2805Z" fill="#415659"/>
<path opacity="0.4" d="M46.8734 21.5446H46.1375V22.2805H46.8734V21.5446Z" fill="#415659"/>
<path opacity="0.4" d="M46.8734 20.8086H46.1375V21.5445H46.8734V20.8086Z" fill="#415659"/>
<path opacity="0.4" d="M46.8734 20.076H46.1375V20.8085H46.8734V20.076Z" fill="#415659"/>
<path opacity="0.4" d="M46.8734 19.3369H46.1375V20.0728H46.8734V19.3369Z" fill="#415659"/>
<path opacity="0.4" d="M46.8734 18.6008H46.1375V19.3368H46.8734V18.6008Z" fill="#415659"/>
<path opacity="0.4" d="M46.8734 17.8649H46.1375V18.6008H46.8734V17.8649Z" fill="#415659"/>
<path opacity="0.4" d="M46.8734 17.1288H46.1375V17.8648H46.8734V17.1288Z" fill="#415659"/>
<path opacity="0.4" d="M46.1374 32.5872H45.4015V33.3232H46.1374V32.5872Z" fill="#415659"/>
<path opacity="0.4" d="M46.1374 31.8548H45.4015V32.5907H46.1374V31.8548Z" fill="#415659"/>
<path opacity="0.4" d="M46.1374 31.1153H45.4015V31.8547H46.1374V31.1153Z" fill="#415659"/>
<path opacity="0.4" d="M46.1374 30.3795H45.4015V31.1155H46.1374V30.3795Z" fill="#415659"/>
<path opacity="0.4" d="M46.1374 29.6436H45.4015V30.3795H46.1374V29.6436Z" fill="#415659"/>
<path opacity="0.4" d="M46.1374 28.9073H45.4015V29.6433H46.1374V28.9073Z" fill="#415659"/>
<path opacity="0.4" d="M46.1374 28.175H45.4015V28.9075H46.1374V28.175Z" fill="#415659"/>
<path opacity="0.4" d="M46.1374 27.4357H45.4015V28.1716H46.1374V27.4357Z" fill="#415659"/>
<path opacity="0.4" d="M46.1374 26.6996H45.4015V27.4355H46.1374V26.6996Z" fill="#415659"/>
<path opacity="0.4" d="M46.1374 25.9637H45.4015V26.6996H46.1374V25.9637Z" fill="#415659"/>
<path opacity="0.4" d="M46.1374 25.2277H45.4015V25.9636H46.1374V25.2277Z" fill="#415659"/>
<path opacity="0.4" d="M46.1374 24.4919H45.4015V25.2278H46.1374V24.4919Z" fill="#415659"/>
<path opacity="0.4" d="M46.1374 23.756H45.4015V24.4919H46.1374V23.756Z" fill="#415659"/>
<path opacity="0.4" d="M46.1374 23.0165H45.4015V23.756H46.1374V23.0165Z" fill="#415659"/>
<path opacity="0.4" d="M46.1374 22.2805H45.4015V23.0164H46.1374V22.2805Z" fill="#415659"/>
<path opacity="0.4" d="M46.1374 21.5446H45.4015V22.2805H46.1374V21.5446Z" fill="#415659"/>
<path opacity="0.4" d="M46.1374 20.8086H45.4015V21.5445H46.1374V20.8086Z" fill="#415659"/>
<path opacity="0.4" d="M46.1374 20.076H45.4015V20.8085H46.1374V20.076Z" fill="#415659"/>
<path opacity="0.4" d="M46.1374 19.3369H45.4015V20.0728H46.1374V19.3369Z" fill="#415659"/>
<path opacity="0.4" d="M46.1374 18.6008H45.4015V19.3368H46.1374V18.6008Z" fill="#415659"/>
<path opacity="0.4" d="M46.1374 17.8649H45.4015V18.6008H46.1374V17.8649Z" fill="#415659"/>
<path opacity="0.4" d="M46.1374 17.1288H45.4015V17.8648H46.1374V17.1288Z" fill="#415659"/>
<path opacity="0.4" d="M45.4015 32.5872H44.6655V33.3232H45.4015V32.5872Z" fill="#415659"/>
<path opacity="0.4" d="M45.4015 31.8548H44.6655V32.5907H45.4015V31.8548Z" fill="#415659"/>
<path opacity="0.4" d="M45.4015 31.1153H44.6655V31.8547H45.4015V31.1153Z" fill="#415659"/>
<path opacity="0.4" d="M45.4015 30.3795H44.6655V31.1155H45.4015V30.3795Z" fill="#415659"/>
<path opacity="0.4" d="M45.4015 29.6436H44.6655V30.3795H45.4015V29.6436Z" fill="#415659"/>
<path opacity="0.4" d="M45.4015 28.9073H44.6655V29.6433H45.4015V28.9073Z" fill="#415659"/>
<path opacity="0.4" d="M45.4015 28.175H44.6655V28.9075H45.4015V28.175Z" fill="#415659"/>
<path opacity="0.4" d="M45.4015 27.4357H44.6655V28.1716H45.4015V27.4357Z" fill="#415659"/>
<path opacity="0.4" d="M45.4015 26.6996H44.6655V27.4355H45.4015V26.6996Z" fill="#415659"/>
<path opacity="0.4" d="M45.4015 25.9637H44.6655V26.6996H45.4015V25.9637Z" fill="#415659"/>
<path opacity="0.4" d="M45.4015 25.2277H44.6655V25.9636H45.4015V25.2277Z" fill="#415659"/>
<path opacity="0.4" d="M45.4015 24.4919H44.6655V25.2278H45.4015V24.4919Z" fill="#415659"/>
<path opacity="0.4" d="M45.4015 23.756H44.6655V24.4919H45.4015V23.756Z" fill="#415659"/>
<path opacity="0.4" d="M45.4015 23.0165H44.6655V23.756H45.4015V23.0165Z" fill="#415659"/>
<path opacity="0.4" d="M45.4015 22.2805H44.6655V23.0164H45.4015V22.2805Z" fill="#415659"/>
<path opacity="0.4" d="M45.4015 21.5446H44.6655V22.2805H45.4015V21.5446Z" fill="#415659"/>
<path opacity="0.4" d="M45.4015 20.8086H44.6655V21.5445H45.4015V20.8086Z" fill="#415659"/>
<path opacity="0.4" d="M45.4015 20.076H44.6655V20.8085H45.4015V20.076Z" fill="#415659"/>
<path opacity="0.4" d="M45.4015 19.3369H44.6655V20.0728H45.4015V19.3369Z" fill="#415659"/>
<path opacity="0.4" d="M45.4015 18.6008H44.6655V19.3368H45.4015V18.6008Z" fill="#415659"/>
<path opacity="0.4" d="M45.4015 17.8649H44.6655V18.6008H45.4015V17.8649Z" fill="#415659"/>
<path opacity="0.4" d="M45.4015 17.1288H44.6655V17.8648H45.4015V17.1288Z" fill="#415659"/>
<path opacity="0.4" d="M44.6656 32.5872H43.9296V33.3232H44.6656V32.5872Z" fill="#415659"/>
<path opacity="0.4" d="M44.6656 31.8548H43.9296V32.5907H44.6656V31.8548Z" fill="#415659"/>
<path opacity="0.4" d="M44.6656 31.1153H43.9296V31.8547H44.6656V31.1153Z" fill="#415659"/>
<path opacity="0.4" d="M44.6656 30.3795H43.9296V31.1155H44.6656V30.3795Z" fill="#415659"/>
<path opacity="0.4" d="M44.6656 29.6436H43.9296V30.3795H44.6656V29.6436Z" fill="#415659"/>
<path opacity="0.4" d="M44.6656 28.9073H43.9296V29.6433H44.6656V28.9073Z" fill="#415659"/>
<path opacity="0.4" d="M44.6656 28.175H43.9296V28.9075H44.6656V28.175Z" fill="#415659"/>
<path opacity="0.4" d="M44.6656 27.4357H43.9296V28.1716H44.6656V27.4357Z" fill="#415659"/>
<path opacity="0.4" d="M44.6656 26.6996H43.9296V27.4355H44.6656V26.6996Z" fill="#415659"/>
<path opacity="0.4" d="M44.6656 25.9637H43.9296V26.6996H44.6656V25.9637Z" fill="#415659"/>
<path opacity="0.4" d="M44.6656 25.2277H43.9296V25.9636H44.6656V25.2277Z" fill="#415659"/>
<path opacity="0.4" d="M44.6656 24.4919H43.9296V25.2278H44.6656V24.4919Z" fill="#415659"/>
<path opacity="0.4" d="M44.6656 23.756H43.9296V24.4919H44.6656V23.756Z" fill="#415659"/>
<path opacity="0.4" d="M44.6656 23.0165H43.9296V23.756H44.6656V23.0165Z" fill="#415659"/>
<path opacity="0.4" d="M44.6656 22.2805H43.9296V23.0164H44.6656V22.2805Z" fill="#415659"/>
<path opacity="0.4" d="M44.6656 21.5446H43.9296V22.2805H44.6656V21.5446Z" fill="#415659"/>
<path opacity="0.4" d="M44.6656 20.8086H43.9296V21.5445H44.6656V20.8086Z" fill="#415659"/>
<path opacity="0.4" d="M44.6656 20.076H43.9296V20.8085H44.6656V20.076Z" fill="#415659"/>
<path opacity="0.4" d="M44.6656 19.3369H43.9296V20.0728H44.6656V19.3369Z" fill="#415659"/>
<path opacity="0.4" d="M44.6656 18.6008H43.9296V19.3368H44.6656V18.6008Z" fill="#415659"/>
<path opacity="0.4" d="M44.6656 17.8649H43.9296V18.6008H44.6656V17.8649Z" fill="#415659"/>
<path opacity="0.4" d="M44.6656 17.1288H43.9296V17.8648H44.6656V17.1288Z" fill="#415659"/>
<path opacity="0.4" d="M43.9296 32.5872H43.1936V33.3232H43.9296V32.5872Z" fill="#415659"/>
<path opacity="0.4" d="M43.9296 31.8548H43.1936V32.5907H43.9296V31.8548Z" fill="#415659"/>
<path opacity="0.4" d="M43.9296 31.1153H43.1936V31.8547H43.9296V31.1153Z" fill="#415659"/>
<path opacity="0.4" d="M43.9296 30.3795H43.1936V31.1155H43.9296V30.3795Z" fill="#415659"/>
<path opacity="0.4" d="M43.9296 29.6436H43.1936V30.3795H43.9296V29.6436Z" fill="#415659"/>
<path opacity="0.4" d="M43.9296 28.9073H43.1936V29.6433H43.9296V28.9073Z" fill="#415659"/>
<path opacity="0.4" d="M43.9296 28.175H43.1936V28.9075H43.9296V28.175Z" fill="#415659"/>
<path opacity="0.4" d="M43.9296 27.4357H43.1936V28.1716H43.9296V27.4357Z" fill="#415659"/>
<path opacity="0.4" d="M43.9296 26.6996H43.1936V27.4355H43.9296V26.6996Z" fill="#415659"/>
<path opacity="0.4" d="M43.9296 25.9637H43.1936V26.6996H43.9296V25.9637Z" fill="#415659"/>
<path opacity="0.4" d="M43.9296 25.2277H43.1936V25.9636H43.9296V25.2277Z" fill="#415659"/>
<path opacity="0.4" d="M43.9296 24.4919H43.1936V25.2278H43.9296V24.4919Z" fill="#415659"/>
<path opacity="0.4" d="M43.9296 23.756H43.1936V24.4919H43.9296V23.756Z" fill="#415659"/>
<path opacity="0.4" d="M43.9296 23.0165H43.1936V23.756H43.9296V23.0165Z" fill="#415659"/>
<path opacity="0.4" d="M43.9296 22.2805H43.1936V23.0164H43.9296V22.2805Z" fill="#415659"/>
<path opacity="0.4" d="M43.9296 21.5446H43.1936V22.2805H43.9296V21.5446Z" fill="#415659"/>
<path opacity="0.4" d="M43.9296 20.8086H43.1936V21.5445H43.9296V20.8086Z" fill="#415659"/>
<path opacity="0.4" d="M43.9296 20.076H43.1936V20.8085H43.9296V20.076Z" fill="#415659"/>
<path opacity="0.4" d="M43.9296 19.3369H43.1936V20.0728H43.9296V19.3369Z" fill="#415659"/>
<path opacity="0.4" d="M43.9296 18.6008H43.1936V19.3368H43.9296V18.6008Z" fill="#415659"/>
<path opacity="0.4" d="M43.9296 17.8649H43.1936V18.6008H43.9296V17.8649Z" fill="#415659"/>
<path opacity="0.4" d="M43.9296 17.1288H43.1936V17.8648H43.9296V17.1288Z" fill="#415659"/>
<path opacity="0.4" d="M43.1936 32.5872H42.4542V33.3232H43.1936V32.5872Z" fill="#415659"/>
<path opacity="0.4" d="M43.1936 31.8548H42.4542V32.5907H43.1936V31.8548Z" fill="#415659"/>
<path opacity="0.4" d="M43.1936 31.1153H42.4542V31.8547H43.1936V31.1153Z" fill="#415659"/>
<path opacity="0.4" d="M43.1936 30.3795H42.4542V31.1155H43.1936V30.3795Z" fill="#415659"/>
<path opacity="0.4" d="M43.1936 29.6436H42.4542V30.3795H43.1936V29.6436Z" fill="#415659"/>
<path opacity="0.4" d="M43.1936 28.9073H42.4542V29.6433H43.1936V28.9073Z" fill="#415659"/>
<path opacity="0.4" d="M43.1936 28.175H42.4542V28.9075H43.1936V28.175Z" fill="#415659"/>
<path opacity="0.4" d="M43.1936 27.4357H42.4542V28.1716H43.1936V27.4357Z" fill="#415659"/>
<path opacity="0.4" d="M43.1936 26.6996H42.4542V27.4355H43.1936V26.6996Z" fill="#415659"/>
<path opacity="0.4" d="M43.1936 25.9637H42.4542V26.6996H43.1936V25.9637Z" fill="#415659"/>
<path opacity="0.4" d="M43.1936 25.2277H42.4542V25.9636H43.1936V25.2277Z" fill="#415659"/>
<path opacity="0.4" d="M43.1936 24.4919H42.4542V25.2278H43.1936V24.4919Z" fill="#415659"/>
<path opacity="0.4" d="M43.1936 23.756H42.4542V24.4919H43.1936V23.756Z" fill="#415659"/>
<path opacity="0.4" d="M43.1936 23.0165H42.4542V23.756H43.1936V23.0165Z" fill="#415659"/>
<path opacity="0.4" d="M43.1936 22.2805H42.4542V23.0164H43.1936V22.2805Z" fill="#415659"/>
<path opacity="0.4" d="M43.1936 21.5446H42.4542V22.2805H43.1936V21.5446Z" fill="#415659"/>
<path opacity="0.4" d="M43.1936 20.8086H42.4542V21.5445H43.1936V20.8086Z" fill="#415659"/>
<path opacity="0.4" d="M43.1936 20.076H42.4542V20.8085H43.1936V20.076Z" fill="#415659"/>
<path opacity="0.4" d="M43.1936 19.3369H42.4542V20.0728H43.1936V19.3369Z" fill="#415659"/>
<path opacity="0.4" d="M43.1936 18.6008H42.4542V19.3368H43.1936V18.6008Z" fill="#415659"/>
<path opacity="0.4" d="M43.1936 17.8649H42.4542V18.6008H43.1936V17.8649Z" fill="#415659"/>
<path opacity="0.4" d="M43.1936 17.1288H42.4542V17.8648H43.1936V17.1288Z" fill="#415659"/>
<path opacity="0.4" d="M42.4543 32.5872H41.7183V33.3232H42.4543V32.5872Z" fill="#415659"/>
<path opacity="0.4" d="M42.4543 31.8548H41.7183V32.5907H42.4543V31.8548Z" fill="#415659"/>
<path opacity="0.4" d="M42.4543 31.1153H41.7183V31.8547H42.4543V31.1153Z" fill="#415659"/>
<path opacity="0.4" d="M42.4543 30.3795H41.7183V31.1155H42.4543V30.3795Z" fill="#415659"/>
<path opacity="0.4" d="M42.4543 29.6436H41.7183V30.3795H42.4543V29.6436Z" fill="#415659"/>
<path opacity="0.4" d="M42.4543 28.9073H41.7183V29.6433H42.4543V28.9073Z" fill="#415659"/>
<path opacity="0.4" d="M42.4543 28.175H41.7183V28.9075H42.4543V28.175Z" fill="#415659"/>
<path opacity="0.4" d="M42.4543 27.4357H41.7183V28.1716H42.4543V27.4357Z" fill="#415659"/>
<path opacity="0.4" d="M42.4543 26.6996H41.7183V27.4355H42.4543V26.6996Z" fill="#415659"/>
<path opacity="0.4" d="M42.4543 25.9637H41.7183V26.6996H42.4543V25.9637Z" fill="#415659"/>
<path opacity="0.4" d="M42.4543 25.2277H41.7183V25.9636H42.4543V25.2277Z" fill="#415659"/>
<path opacity="0.4" d="M42.4543 24.4919H41.7183V25.2278H42.4543V24.4919Z" fill="#415659"/>
<path opacity="0.4" d="M42.4543 23.756H41.7183V24.4919H42.4543V23.756Z" fill="#415659"/>
<path opacity="0.4" d="M42.4543 23.0165H41.7183V23.756H42.4543V23.0165Z" fill="#415659"/>
<path opacity="0.4" d="M42.4543 22.2805H41.7183V23.0164H42.4543V22.2805Z" fill="#415659"/>
<path opacity="0.4" d="M42.4543 21.5446H41.7183V22.2805H42.4543V21.5446Z" fill="#415659"/>
<path opacity="0.4" d="M42.4543 20.8086H41.7183V21.5445H42.4543V20.8086Z" fill="#415659"/>
<path opacity="0.4" d="M42.4543 20.076H41.7183V20.8085H42.4543V20.076Z" fill="#415659"/>
<path opacity="0.4" d="M42.4543 19.3369H41.7183V20.0728H42.4543V19.3369Z" fill="#415659"/>
<path opacity="0.4" d="M42.4543 18.6008H41.7183V19.3368H42.4543V18.6008Z" fill="#415659"/>
<path opacity="0.4" d="M42.4543 17.8649H41.7183V18.6008H42.4543V17.8649Z" fill="#415659"/>
<path opacity="0.4" d="M42.4543 17.1288H41.7183V17.8648H42.4543V17.1288Z" fill="#415659"/>
<path opacity="0.4" d="M41.7218 32.5872H40.9859V33.3232H41.7218V32.5872Z" fill="#415659"/>
<path opacity="0.4" d="M41.7218 31.8548H40.9859V32.5907H41.7218V31.8548Z" fill="#415659"/>
<path opacity="0.4" d="M41.7218 31.1153H40.9859V31.8547H41.7218V31.1153Z" fill="#415659"/>
<path opacity="0.4" d="M41.7218 30.3795H40.9859V31.1155H41.7218V30.3795Z" fill="#415659"/>
<path opacity="0.4" d="M41.7218 29.6436H40.9859V30.3795H41.7218V29.6436Z" fill="#415659"/>
<path opacity="0.4" d="M41.7218 28.9073H40.9859V29.6433H41.7218V28.9073Z" fill="#415659"/>
<path opacity="0.4" d="M41.7218 28.175H40.9859V28.9075H41.7218V28.175Z" fill="#415659"/>
<path opacity="0.4" d="M41.7218 27.4357H40.9859V28.1716H41.7218V27.4357Z" fill="#415659"/>
<path opacity="0.4" d="M41.7218 26.6996H40.9859V27.4355H41.7218V26.6996Z" fill="#415659"/>
<path opacity="0.4" d="M41.7218 25.9637H40.9859V26.6996H41.7218V25.9637Z" fill="#415659"/>
<path opacity="0.4" d="M41.7218 25.2277H40.9859V25.9636H41.7218V25.2277Z" fill="#415659"/>
<path opacity="0.4" d="M41.7218 24.4919H40.9859V25.2278H41.7218V24.4919Z" fill="#415659"/>
<path opacity="0.4" d="M41.7218 23.756H40.9859V24.4919H41.7218V23.756Z" fill="#415659"/>
<path opacity="0.4" d="M41.7218 23.0165H40.9859V23.756H41.7218V23.0165Z" fill="#415659"/>
<path opacity="0.4" d="M41.7218 22.2805H40.9859V23.0164H41.7218V22.2805Z" fill="#415659"/>
<path opacity="0.4" d="M41.7218 21.5446H40.9859V22.2805H41.7218V21.5446Z" fill="#415659"/>
<path opacity="0.4" d="M41.7218 20.8086H40.9859V21.5445H41.7218V20.8086Z" fill="#415659"/>
<path opacity="0.4" d="M41.7218 20.076H40.9859V20.8085H41.7218V20.076Z" fill="#415659"/>
<path opacity="0.4" d="M41.7218 19.3369H40.9859V20.0728H41.7218V19.3369Z" fill="#415659"/>
<path opacity="0.4" d="M41.7218 18.6008H40.9859V19.3368H41.7218V18.6008Z" fill="#415659"/>
<path opacity="0.4" d="M41.7218 17.8649H40.9859V18.6008H41.7218V17.8649Z" fill="#415659"/>
<path opacity="0.4" d="M41.7218 17.1288H40.9859V17.8648H41.7218V17.1288Z" fill="#415659"/>
<path opacity="0.4" d="M40.9858 32.5872H40.2499V33.3232H40.9858V32.5872Z" fill="#415659"/>
<path opacity="0.4" d="M40.9858 31.8548H40.2499V32.5907H40.9858V31.8548Z" fill="#415659"/>
<path opacity="0.4" d="M40.9858 31.1153H40.2499V31.8547H40.9858V31.1153Z" fill="#415659"/>
<path opacity="0.4" d="M40.9858 30.3795H40.2499V31.1155H40.9858V30.3795Z" fill="#415659"/>
<path opacity="0.4" d="M40.9858 29.6436H40.2499V30.3795H40.9858V29.6436Z" fill="#415659"/>
<path opacity="0.4" d="M40.9858 28.9073H40.2499V29.6433H40.9858V28.9073Z" fill="#415659"/>
<path opacity="0.4" d="M40.9858 28.175H40.2499V28.9075H40.9858V28.175Z" fill="#415659"/>
<path opacity="0.4" d="M40.9858 27.4357H40.2499V28.1716H40.9858V27.4357Z" fill="#415659"/>
<path opacity="0.4" d="M40.9858 26.6996H40.2499V27.4355H40.9858V26.6996Z" fill="#415659"/>
<path opacity="0.4" d="M40.9858 25.9637H40.2499V26.6996H40.9858V25.9637Z" fill="#415659"/>
<path opacity="0.4" d="M40.9858 25.2277H40.2499V25.9636H40.9858V25.2277Z" fill="#415659"/>
<path opacity="0.4" d="M40.9858 24.4919H40.2499V25.2278H40.9858V24.4919Z" fill="#415659"/>
<path opacity="0.4" d="M40.9858 23.756H40.2499V24.4919H40.9858V23.756Z" fill="#415659"/>
<path opacity="0.4" d="M40.9858 23.0165H40.2499V23.756H40.9858V23.0165Z" fill="#415659"/>
<path opacity="0.4" d="M40.9858 22.2805H40.2499V23.0164H40.9858V22.2805Z" fill="#415659"/>
<path opacity="0.4" d="M40.9858 21.5446H40.2499V22.2805H40.9858V21.5446Z" fill="#415659"/>
<path opacity="0.4" d="M40.9858 20.8086H40.2499V21.5445H40.9858V20.8086Z" fill="#415659"/>
<path opacity="0.4" d="M40.9858 20.076H40.2499V20.8085H40.9858V20.076Z" fill="#415659"/>
<path opacity="0.4" d="M40.9858 19.3369H40.2499V20.0728H40.9858V19.3369Z" fill="#415659"/>
<path opacity="0.4" d="M40.9858 18.6008H40.2499V19.3368H40.9858V18.6008Z" fill="#415659"/>
<path opacity="0.4" d="M40.9858 17.8649H40.2499V18.6008H40.9858V17.8649Z" fill="#415659"/>
<path opacity="0.4" d="M40.9858 17.1288H40.2499V17.8648H40.9858V17.1288Z" fill="#415659"/>
<path opacity="0.4" d="M40.2499 32.5872H39.514V33.3232H40.2499V32.5872Z" fill="#415659"/>
<path opacity="0.4" d="M40.2499 31.8548H39.514V32.5907H40.2499V31.8548Z" fill="#415659"/>
<path opacity="0.4" d="M40.2499 31.1153H39.514V31.8547H40.2499V31.1153Z" fill="#415659"/>
<path opacity="0.4" d="M40.2499 30.3795H39.514V31.1155H40.2499V30.3795Z" fill="#415659"/>
<path opacity="0.4" d="M40.2499 29.6436H39.514V30.3795H40.2499V29.6436Z" fill="#415659"/>
<path opacity="0.4" d="M40.2499 28.9073H39.514V29.6433H40.2499V28.9073Z" fill="#415659"/>
<path opacity="0.4" d="M40.2499 28.175H39.514V28.9075H40.2499V28.175Z" fill="#415659"/>
<path opacity="0.4" d="M40.2499 27.4357H39.514V28.1716H40.2499V27.4357Z" fill="#415659"/>
<path opacity="0.4" d="M40.2499 26.6996H39.514V27.4355H40.2499V26.6996Z" fill="#415659"/>
<path opacity="0.4" d="M40.2499 25.9637H39.514V26.6996H40.2499V25.9637Z" fill="#415659"/>
<path opacity="0.4" d="M40.2499 25.2277H39.514V25.9636H40.2499V25.2277Z" fill="#415659"/>
<path opacity="0.4" d="M40.2499 24.4919H39.514V25.2278H40.2499V24.4919Z" fill="#415659"/>
<path opacity="0.4" d="M40.2499 23.756H39.514V24.4919H40.2499V23.756Z" fill="#415659"/>
<path opacity="0.4" d="M40.2499 23.0165H39.514V23.756H40.2499V23.0165Z" fill="#415659"/>
<path opacity="0.4" d="M40.2499 22.2805H39.514V23.0164H40.2499V22.2805Z" fill="#415659"/>
<path opacity="0.4" d="M40.2499 21.5446H39.514V22.2805H40.2499V21.5446Z" fill="#415659"/>
<path opacity="0.4" d="M40.2499 20.8086H39.514V21.5445H40.2499V20.8086Z" fill="#415659"/>
<path opacity="0.4" d="M40.2499 20.076H39.514V20.8085H40.2499V20.076Z" fill="#415659"/>
<path opacity="0.4" d="M40.2499 19.3369H39.514V20.0728H40.2499V19.3369Z" fill="#415659"/>
<path opacity="0.4" d="M40.2499 18.6008H39.514V19.3368H40.2499V18.6008Z" fill="#415659"/>
<path opacity="0.4" d="M40.2499 17.8649H39.514V18.6008H40.2499V17.8649Z" fill="#415659"/>
<path opacity="0.4" d="M40.2499 17.1288H39.514V17.8648H40.2499V17.1288Z" fill="#415659"/>
<path opacity="0.4" d="M39.5139 32.5872H38.7745V33.3232H39.5139V32.5872Z" fill="#415659"/>
<path opacity="0.4" d="M39.5139 31.8548H38.7745V32.5907H39.5139V31.8548Z" fill="#415659"/>
<path opacity="0.4" d="M39.5139 31.1153H38.7745V31.8547H39.5139V31.1153Z" fill="#415659"/>
<path opacity="0.4" d="M39.5139 30.3795H38.7745V31.1155H39.5139V30.3795Z" fill="#415659"/>
<path opacity="0.4" d="M39.5139 29.6436H38.7745V30.3795H39.5139V29.6436Z" fill="#415659"/>
<path opacity="0.4" d="M39.5139 28.9073H38.7745V29.6433H39.5139V28.9073Z" fill="#415659"/>
<path opacity="0.4" d="M39.5139 28.175H38.7745V28.9075H39.5139V28.175Z" fill="#415659"/>
<path opacity="0.4" d="M39.5139 27.4357H38.7745V28.1716H39.5139V27.4357Z" fill="#415659"/>
<path opacity="0.4" d="M39.5139 26.6996H38.7745V27.4355H39.5139V26.6996Z" fill="#415659"/>
<path opacity="0.4" d="M39.5139 25.9637H38.7745V26.6996H39.5139V25.9637Z" fill="#415659"/>
<path opacity="0.4" d="M39.5139 25.2277H38.7745V25.9636H39.5139V25.2277Z" fill="#415659"/>
<path opacity="0.4" d="M39.5139 24.4919H38.7745V25.2278H39.5139V24.4919Z" fill="#415659"/>
<path opacity="0.4" d="M39.5139 23.756H38.7745V24.4919H39.5139V23.756Z" fill="#415659"/>
<path opacity="0.4" d="M39.5139 23.0165H38.7745V23.756H39.5139V23.0165Z" fill="#415659"/>
<path opacity="0.4" d="M39.5139 22.2805H38.7745V23.0164H39.5139V22.2805Z" fill="#415659"/>
<path opacity="0.4" d="M39.5139 21.5446H38.7745V22.2805H39.5139V21.5446Z" fill="#415659"/>
<path opacity="0.4" d="M39.5139 20.8086H38.7745V21.5445H39.5139V20.8086Z" fill="#415659"/>
<path opacity="0.4" d="M39.5139 20.076H38.7745V20.8085H39.5139V20.076Z" fill="#415659"/>
<path opacity="0.4" d="M39.5139 19.3369H38.7745V20.0728H39.5139V19.3369Z" fill="#415659"/>
<path opacity="0.4" d="M39.5139 18.6008H38.7745V19.3368H39.5139V18.6008Z" fill="#415659"/>
<path opacity="0.4" d="M39.5139 17.8649H38.7745V18.6008H39.5139V17.8649Z" fill="#415659"/>
<path opacity="0.4" d="M39.5139 17.1288H38.7745V17.8648H39.5139V17.1288Z" fill="#415659"/>
<path opacity="0.4" d="M38.7745 32.5872H38.0386V33.3232H38.7745V32.5872Z" fill="#415659"/>
<path opacity="0.4" d="M38.7745 31.8548H38.0386V32.5907H38.7745V31.8548Z" fill="#415659"/>
<path opacity="0.4" d="M38.7745 31.1153H38.0386V31.8547H38.7745V31.1153Z" fill="#415659"/>
<path opacity="0.4" d="M38.7745 30.3795H38.0386V31.1155H38.7745V30.3795Z" fill="#415659"/>
<path opacity="0.4" d="M38.7745 29.6436H38.0386V30.3795H38.7745V29.6436Z" fill="#415659"/>
<path opacity="0.4" d="M38.7745 28.9073H38.0386V29.6433H38.7745V28.9073Z" fill="#415659"/>
<path opacity="0.4" d="M38.7745 28.175H38.0386V28.9075H38.7745V28.175Z" fill="#415659"/>
<path opacity="0.4" d="M38.7745 27.4357H38.0386V28.1716H38.7745V27.4357Z" fill="#415659"/>
<path opacity="0.4" d="M38.7745 26.6996H38.0386V27.4355H38.7745V26.6996Z" fill="#415659"/>
<path opacity="0.4" d="M38.7745 25.9637H38.0386V26.6996H38.7745V25.9637Z" fill="#415659"/>
<path opacity="0.4" d="M38.7745 25.2277H38.0386V25.9636H38.7745V25.2277Z" fill="#415659"/>
<path opacity="0.4" d="M38.7745 24.4919H38.0386V25.2278H38.7745V24.4919Z" fill="#415659"/>
<path opacity="0.4" d="M38.7745 23.756H38.0386V24.4919H38.7745V23.756Z" fill="#415659"/>
<path opacity="0.4" d="M38.7745 23.0165H38.0386V23.756H38.7745V23.0165Z" fill="#415659"/>
<path opacity="0.4" d="M38.7745 22.2805H38.0386V23.0164H38.7745V22.2805Z" fill="#415659"/>
<path opacity="0.4" d="M38.7745 21.5446H38.0386V22.2805H38.7745V21.5446Z" fill="#415659"/>
<path opacity="0.4" d="M38.7745 20.8086H38.0386V21.5445H38.7745V20.8086Z" fill="#415659"/>
<path opacity="0.4" d="M38.7745 20.076H38.0386V20.8085H38.7745V20.076Z" fill="#415659"/>
<path opacity="0.4" d="M38.7745 19.3369H38.0386V20.0728H38.7745V19.3369Z" fill="#415659"/>
<path opacity="0.4" d="M38.7745 18.6008H38.0386V19.3368H38.7745V18.6008Z" fill="#415659"/>
<path opacity="0.4" d="M38.7745 17.8649H38.0386V18.6008H38.7745V17.8649Z" fill="#415659"/>
<path opacity="0.4" d="M38.7745 17.1288H38.0386V17.8648H38.7745V17.1288Z" fill="#415659"/>
<path opacity="0.4" d="M38.0386 32.5872H37.3026V33.3232H38.0386V32.5872Z" fill="#415659"/>
<path opacity="0.4" d="M38.0386 31.8548H37.3026V32.5907H38.0386V31.8548Z" fill="#415659"/>
<path opacity="0.4" d="M38.0386 31.1153H37.3026V31.8547H38.0386V31.1153Z" fill="#415659"/>
<path opacity="0.4" d="M38.0386 30.3795H37.3026V31.1155H38.0386V30.3795Z" fill="#415659"/>
<path opacity="0.4" d="M38.0386 29.6436H37.3026V30.3795H38.0386V29.6436Z" fill="#415659"/>
<path opacity="0.4" d="M38.0386 28.9073H37.3026V29.6433H38.0386V28.9073Z" fill="#415659"/>
<path opacity="0.4" d="M38.0386 28.175H37.3026V28.9075H38.0386V28.175Z" fill="#415659"/>
<path opacity="0.4" d="M38.0386 27.4357H37.3026V28.1716H38.0386V27.4357Z" fill="#415659"/>
<path opacity="0.4" d="M38.0386 26.6996H37.3026V27.4355H38.0386V26.6996Z" fill="#415659"/>
<path opacity="0.4" d="M38.0386 25.9637H37.3026V26.6996H38.0386V25.9637Z" fill="#415659"/>
<path opacity="0.4" d="M38.0386 25.2277H37.3026V25.9636H38.0386V25.2277Z" fill="#415659"/>
<path opacity="0.4" d="M38.0386 24.4919H37.3026V25.2278H38.0386V24.4919Z" fill="#415659"/>
<path opacity="0.4" d="M38.0386 23.756H37.3026V24.4919H38.0386V23.756Z" fill="#415659"/>
<path opacity="0.4" d="M38.0386 23.0165H37.3026V23.756H38.0386V23.0165Z" fill="#415659"/>
<path opacity="0.4" d="M38.0386 22.2805H37.3026V23.0164H38.0386V22.2805Z" fill="#415659"/>
<path opacity="0.4" d="M38.0386 21.5446H37.3026V22.2805H38.0386V21.5446Z" fill="#415659"/>
<path opacity="0.4" d="M38.0386 20.8086H37.3026V21.5445H38.0386V20.8086Z" fill="#415659"/>
<path opacity="0.4" d="M38.0386 20.076H37.3026V20.8085H38.0386V20.076Z" fill="#415659"/>
<path opacity="0.4" d="M38.0386 19.3369H37.3026V20.0728H38.0386V19.3369Z" fill="#415659"/>
<path opacity="0.4" d="M38.0386 18.6008H37.3026V19.3368H38.0386V18.6008Z" fill="#415659"/>
<path opacity="0.4" d="M38.0386 17.8649H37.3026V18.6008H38.0386V17.8649Z" fill="#415659"/>
<path opacity="0.4" d="M38.0386 17.1288H37.3026V17.8648H38.0386V17.1288Z" fill="#415659"/>
<path opacity="0.4" d="M37.3026 32.5872H36.5667V33.3232H37.3026V32.5872Z" fill="#415659"/>
<path opacity="0.4" d="M37.3026 31.8548H36.5667V32.5907H37.3026V31.8548Z" fill="#415659"/>
<path opacity="0.4" d="M37.3026 31.1153H36.5667V31.8547H37.3026V31.1153Z" fill="#415659"/>
<path opacity="0.4" d="M37.3026 30.3795H36.5667V31.1155H37.3026V30.3795Z" fill="#415659"/>
<path opacity="0.4" d="M37.3026 29.6436H36.5667V30.3795H37.3026V29.6436Z" fill="#415659"/>
<path opacity="0.4" d="M37.3026 28.9073H36.5667V29.6433H37.3026V28.9073Z" fill="#415659"/>
<path opacity="0.4" d="M37.3026 28.175H36.5667V28.9075H37.3026V28.175Z" fill="#415659"/>
<path opacity="0.4" d="M37.3026 27.4357H36.5667V28.1716H37.3026V27.4357Z" fill="#415659"/>
<path opacity="0.4" d="M37.3026 26.6996H36.5667V27.4355H37.3026V26.6996Z" fill="#415659"/>
<path opacity="0.4" d="M37.3026 25.9637H36.5667V26.6996H37.3026V25.9637Z" fill="#415659"/>
<path opacity="0.4" d="M37.3026 25.2277H36.5667V25.9636H37.3026V25.2277Z" fill="#415659"/>
<path opacity="0.4" d="M37.3026 24.4919H36.5667V25.2278H37.3026V24.4919Z" fill="#415659"/>
<path opacity="0.4" d="M37.3026 23.756H36.5667V24.4919H37.3026V23.756Z" fill="#415659"/>
<path opacity="0.4" d="M37.3026 23.0165H36.5667V23.756H37.3026V23.0165Z" fill="#415659"/>
<path opacity="0.4" d="M37.3026 22.2805H36.5667V23.0164H37.3026V22.2805Z" fill="#415659"/>
<path opacity="0.4" d="M37.3026 21.5446H36.5667V22.2805H37.3026V21.5446Z" fill="#415659"/>
<path opacity="0.4" d="M37.3026 20.8086H36.5667V21.5445H37.3026V20.8086Z" fill="#415659"/>
<path opacity="0.4" d="M37.3026 20.076H36.5667V20.8085H37.3026V20.076Z" fill="#415659"/>
<path opacity="0.4" d="M37.3026 19.3369H36.5667V20.0728H37.3026V19.3369Z" fill="#415659"/>
<path opacity="0.4" d="M37.3026 18.6008H36.5667V19.3368H37.3026V18.6008Z" fill="#415659"/>
<path opacity="0.4" d="M37.3026 17.8649H36.5667V18.6008H37.3026V17.8649Z" fill="#415659"/>
<path opacity="0.4" d="M37.3026 17.1288H36.5667V17.8648H37.3026V17.1288Z" fill="#415659"/>
<path opacity="0.4" d="M36.5666 32.5872H35.8307V33.3232H36.5666V32.5872Z" fill="#415659"/>
<path opacity="0.4" d="M36.5666 31.8548H35.8307V32.5907H36.5666V31.8548Z" fill="#415659"/>
<path opacity="0.4" d="M36.5666 31.1153H35.8307V31.8547H36.5666V31.1153Z" fill="#415659"/>
<path opacity="0.4" d="M36.5666 30.3795H35.8307V31.1155H36.5666V30.3795Z" fill="#415659"/>
<path opacity="0.4" d="M36.5666 29.6436H35.8307V30.3795H36.5666V29.6436Z" fill="#415659"/>
<path opacity="0.4" d="M36.5666 28.9073H35.8307V29.6433H36.5666V28.9073Z" fill="#415659"/>
<path opacity="0.4" d="M36.5666 28.175H35.8307V28.9075H36.5666V28.175Z" fill="#415659"/>
<path opacity="0.4" d="M36.5666 27.4357H35.8307V28.1716H36.5666V27.4357Z" fill="#415659"/>
<path opacity="0.4" d="M36.5666 26.6996H35.8307V27.4355H36.5666V26.6996Z" fill="#415659"/>
<path opacity="0.4" d="M36.5666 25.9637H35.8307V26.6996H36.5666V25.9637Z" fill="#415659"/>
<path opacity="0.4" d="M36.5666 25.2277H35.8307V25.9636H36.5666V25.2277Z" fill="#415659"/>
<path opacity="0.4" d="M36.5666 24.4919H35.8307V25.2278H36.5666V24.4919Z" fill="#415659"/>
<path opacity="0.4" d="M36.5666 23.756H35.8307V24.4919H36.5666V23.756Z" fill="#415659"/>
<path opacity="0.4" d="M36.5666 23.0165H35.8307V23.756H36.5666V23.0165Z" fill="#415659"/>
<path opacity="0.4" d="M36.5666 22.2805H35.8307V23.0164H36.5666V22.2805Z" fill="#415659"/>
<path opacity="0.4" d="M36.5666 21.5446H35.8307V22.2805H36.5666V21.5446Z" fill="#415659"/>
<path opacity="0.4" d="M36.5666 20.8086H35.8307V21.5445H36.5666V20.8086Z" fill="#415659"/>
<path opacity="0.4" d="M36.5666 20.076H35.8307V20.8085H36.5666V20.076Z" fill="#415659"/>
<path opacity="0.4" d="M36.5666 19.3369H35.8307V20.0728H36.5666V19.3369Z" fill="#415659"/>
<path opacity="0.4" d="M36.5666 18.6008H35.8307V19.3368H36.5666V18.6008Z" fill="#415659"/>
<path opacity="0.4" d="M36.5666 17.8649H35.8307V18.6008H36.5666V17.8649Z" fill="#415659"/>
<path opacity="0.4" d="M36.5666 17.1288H35.8307V17.8648H36.5666V17.1288Z" fill="#415659"/>
<path opacity="0.4" d="M35.8342 32.5872H35.0983V33.3232H35.8342V32.5872Z" fill="#415659"/>
<path opacity="0.4" d="M35.8342 31.8548H35.0983V32.5907H35.8342V31.8548Z" fill="#415659"/>
<path opacity="0.4" d="M35.8342 31.1153H35.0983V31.8547H35.8342V31.1153Z" fill="#415659"/>
<path opacity="0.4" d="M35.8342 30.3795H35.0983V31.1155H35.8342V30.3795Z" fill="#415659"/>
<path opacity="0.4" d="M35.8342 29.6436H35.0983V30.3795H35.8342V29.6436Z" fill="#415659"/>
<path opacity="0.4" d="M35.8342 28.9073H35.0983V29.6433H35.8342V28.9073Z" fill="#415659"/>
<path opacity="0.4" d="M35.8342 28.175H35.0983V28.9075H35.8342V28.175Z" fill="#415659"/>
<path opacity="0.4" d="M35.8342 27.4357H35.0983V28.1716H35.8342V27.4357Z" fill="#415659"/>
<path opacity="0.4" d="M35.8342 26.6996H35.0983V27.4355H35.8342V26.6996Z" fill="#415659"/>
<path opacity="0.4" d="M35.8342 25.9637H35.0983V26.6996H35.8342V25.9637Z" fill="#415659"/>
<path opacity="0.4" d="M35.8342 25.2277H35.0983V25.9636H35.8342V25.2277Z" fill="#415659"/>
<path opacity="0.4" d="M35.8342 24.4919H35.0983V25.2278H35.8342V24.4919Z" fill="#415659"/>
<path opacity="0.4" d="M35.8342 23.756H35.0983V24.4919H35.8342V23.756Z" fill="#415659"/>
<path opacity="0.4" d="M35.8342 23.0165H35.0983V23.756H35.8342V23.0165Z" fill="#415659"/>
<path opacity="0.4" d="M35.8342 22.2805H35.0983V23.0164H35.8342V22.2805Z" fill="#415659"/>
<path opacity="0.4" d="M35.8342 21.5446H35.0983V22.2805H35.8342V21.5446Z" fill="#415659"/>
<path opacity="0.4" d="M35.8342 20.8086H35.0983V21.5445H35.8342V20.8086Z" fill="#415659"/>
<path opacity="0.4" d="M35.8342 20.076H35.0983V20.8085H35.8342V20.076Z" fill="#415659"/>
<path opacity="0.4" d="M35.8342 19.3369H35.0983V20.0728H35.8342V19.3369Z" fill="#415659"/>
<path opacity="0.4" d="M35.8342 18.6008H35.0983V19.3368H35.8342V18.6008Z" fill="#415659"/>
<path opacity="0.4" d="M35.8342 17.8649H35.0983V18.6008H35.8342V17.8649Z" fill="#415659"/>
<path opacity="0.4" d="M35.8342 17.1288H35.0983V17.8648H35.8342V17.1288Z" fill="#415659"/>
<path opacity="0.4" d="M35.0948 32.5872H34.3553V33.3232H35.0948V32.5872Z" fill="#415659"/>
<path opacity="0.4" d="M35.0948 31.8548H34.3553V32.5907H35.0948V31.8548Z" fill="#415659"/>
<path opacity="0.4" d="M35.0948 31.1153H34.3553V31.8547H35.0948V31.1153Z" fill="#415659"/>
<path opacity="0.4" d="M35.0948 30.3795H34.3553V31.1155H35.0948V30.3795Z" fill="#415659"/>
<path opacity="0.4" d="M35.0948 29.6436H34.3553V30.3795H35.0948V29.6436Z" fill="#415659"/>
<path opacity="0.4" d="M35.0948 28.9073H34.3553V29.6433H35.0948V28.9073Z" fill="#415659"/>
<path opacity="0.4" d="M35.0948 28.175H34.3553V28.9075H35.0948V28.175Z" fill="#415659"/>
<path opacity="0.4" d="M35.0948 27.4357H34.3553V28.1716H35.0948V27.4357Z" fill="#415659"/>
<path opacity="0.4" d="M35.0948 26.6996H34.3553V27.4355H35.0948V26.6996Z" fill="#415659"/>
<path opacity="0.4" d="M35.0948 25.9637H34.3553V26.6996H35.0948V25.9637Z" fill="#415659"/>
<path opacity="0.4" d="M35.0948 25.2277H34.3553V25.9636H35.0948V25.2277Z" fill="#415659"/>
<path opacity="0.4" d="M35.0948 24.4919H34.3553V25.2278H35.0948V24.4919Z" fill="#415659"/>
<path opacity="0.4" d="M35.0948 23.756H34.3553V24.4919H35.0948V23.756Z" fill="#415659"/>
<path opacity="0.4" d="M35.0948 23.0165H34.3553V23.756H35.0948V23.0165Z" fill="#415659"/>
<path opacity="0.4" d="M35.0948 22.2805H34.3553V23.0164H35.0948V22.2805Z" fill="#415659"/>
<path opacity="0.4" d="M35.0948 21.5446H34.3553V22.2805H35.0948V21.5446Z" fill="#415659"/>
<path opacity="0.4" d="M35.0948 20.8086H34.3553V21.5445H35.0948V20.8086Z" fill="#415659"/>
<path opacity="0.4" d="M35.0948 20.076H34.3553V20.8085H35.0948V20.076Z" fill="#415659"/>
<path opacity="0.4" d="M35.0948 19.3369H34.3553V20.0728H35.0948V19.3369Z" fill="#415659"/>
<path opacity="0.4" d="M35.0948 18.6008H34.3553V19.3368H35.0948V18.6008Z" fill="#415659"/>
<path opacity="0.4" d="M35.0948 17.8649H34.3553V18.6008H35.0948V17.8649Z" fill="#415659"/>
<path opacity="0.4" d="M35.0948 17.1288H34.3553V17.8648H35.0948V17.1288Z" fill="#415659"/>
<path opacity="0.4" d="M34.3589 32.5872H33.6229V33.3232H34.3589V32.5872Z" fill="#415659"/>
<path opacity="0.4" d="M34.3589 31.8548H33.6229V32.5907H34.3589V31.8548Z" fill="#415659"/>
<path opacity="0.4" d="M34.3589 31.1153H33.6229V31.8547H34.3589V31.1153Z" fill="#415659"/>
<path opacity="0.4" d="M34.3589 30.3795H33.6229V31.1155H34.3589V30.3795Z" fill="#415659"/>
<path opacity="0.4" d="M34.3589 29.6436H33.6229V30.3795H34.3589V29.6436Z" fill="#415659"/>
<path opacity="0.4" d="M34.3589 28.9073H33.6229V29.6433H34.3589V28.9073Z" fill="#415659"/>
<path opacity="0.4" d="M34.3589 28.175H33.6229V28.9075H34.3589V28.175Z" fill="#415659"/>
<path opacity="0.4" d="M34.3589 27.4357H33.6229V28.1716H34.3589V27.4357Z" fill="#415659"/>
<path opacity="0.4" d="M34.3589 26.6996H33.6229V27.4355H34.3589V26.6996Z" fill="#415659"/>
<path opacity="0.4" d="M34.3589 25.9637H33.6229V26.6996H34.3589V25.9637Z" fill="#415659"/>
<path opacity="0.4" d="M34.3589 25.2277H33.6229V25.9636H34.3589V25.2277Z" fill="#415659"/>
<path opacity="0.4" d="M34.3589 24.4919H33.6229V25.2278H34.3589V24.4919Z" fill="#415659"/>
<path opacity="0.4" d="M34.3589 23.756H33.6229V24.4919H34.3589V23.756Z" fill="#415659"/>
<path opacity="0.4" d="M34.3589 23.0165H33.6229V23.756H34.3589V23.0165Z" fill="#415659"/>
<path opacity="0.4" d="M34.3589 22.2805H33.6229V23.0164H34.3589V22.2805Z" fill="#415659"/>
<path opacity="0.4" d="M34.3589 21.5446H33.6229V22.2805H34.3589V21.5446Z" fill="#415659"/>
<path opacity="0.4" d="M34.3589 20.8086H33.6229V21.5445H34.3589V20.8086Z" fill="#415659"/>
<path opacity="0.4" d="M34.3589 20.076H33.6229V20.8085H34.3589V20.076Z" fill="#415659"/>
<path opacity="0.4" d="M34.3589 19.3369H33.6229V20.0728H34.3589V19.3369Z" fill="#415659"/>
<path opacity="0.4" d="M34.3589 18.6008H33.6229V19.3368H34.3589V18.6008Z" fill="#415659"/>
<path opacity="0.4" d="M34.3589 17.8649H33.6229V18.6008H34.3589V17.8649Z" fill="#415659"/>
<path opacity="0.4" d="M34.3589 17.1288H33.6229V17.8648H34.3589V17.1288Z" fill="#415659"/>
<path opacity="0.4" d="M33.6228 32.5872H32.8868V33.3232H33.6228V32.5872Z" fill="#415659"/>
<path opacity="0.4" d="M33.6228 31.8548H32.8868V32.5907H33.6228V31.8548Z" fill="#415659"/>
<path opacity="0.4" d="M33.6228 31.1153H32.8868V31.8547H33.6228V31.1153Z" fill="#415659"/>
<path opacity="0.4" d="M33.6228 30.3795H32.8868V31.1155H33.6228V30.3795Z" fill="#415659"/>
<path opacity="0.4" d="M33.6228 29.6436H32.8868V30.3795H33.6228V29.6436Z" fill="#415659"/>
<path opacity="0.4" d="M33.6228 28.9073H32.8868V29.6433H33.6228V28.9073Z" fill="#415659"/>
<path opacity="0.4" d="M33.6228 28.175H32.8868V28.9075H33.6228V28.175Z" fill="#415659"/>
<path opacity="0.4" d="M33.6228 27.4357H32.8868V28.1716H33.6228V27.4357Z" fill="#415659"/>
<path opacity="0.4" d="M33.6228 26.6996H32.8868V27.4355H33.6228V26.6996Z" fill="#415659"/>
<path opacity="0.4" d="M33.6228 25.9637H32.8868V26.6996H33.6228V25.9637Z" fill="#415659"/>
<path opacity="0.4" d="M33.6228 25.2277H32.8868V25.9636H33.6228V25.2277Z" fill="#415659"/>
<path opacity="0.4" d="M33.6228 24.4919H32.8868V25.2278H33.6228V24.4919Z" fill="#415659"/>
<path opacity="0.4" d="M33.6228 23.756H32.8868V24.4919H33.6228V23.756Z" fill="#415659"/>
<path opacity="0.4" d="M33.6228 23.0165H32.8868V23.756H33.6228V23.0165Z" fill="#415659"/>
<path opacity="0.4" d="M33.6228 22.2805H32.8868V23.0164H33.6228V22.2805Z" fill="#415659"/>
<path opacity="0.4" d="M33.6228 21.5446H32.8868V22.2805H33.6228V21.5446Z" fill="#415659"/>
<path opacity="0.4" d="M33.6228 20.8086H32.8868V21.5445H33.6228V20.8086Z" fill="#415659"/>
<path opacity="0.4" d="M33.6228 20.076H32.8868V20.8085H33.6228V20.076Z" fill="#415659"/>
<path opacity="0.4" d="M33.6228 19.3369H32.8868V20.0728H33.6228V19.3369Z" fill="#415659"/>
<path opacity="0.4" d="M33.6228 18.6008H32.8868V19.3368H33.6228V18.6008Z" fill="#415659"/>
<path opacity="0.4" d="M33.6228 17.8649H32.8868V18.6008H33.6228V17.8649Z" fill="#415659"/>
<path opacity="0.4" d="M33.6228 17.1288H32.8868V17.8648H33.6228V17.1288Z" fill="#415659"/>
<path opacity="0.4" d="M31.2657 18.882V15.5112H34.6018" stroke="#415659" stroke-width="1.8662" stroke-miterlimit="10"/>
<path opacity="0.4" d="M50.7024 18.816V15.4453H47.3663" stroke="#415659" stroke-width="1.8662" stroke-miterlimit="10"/>
<path opacity="0.4" d="M31.2657 31.6084V34.9792H34.6018" stroke="#415659" stroke-width="1.8662" stroke-miterlimit="10"/>
<path opacity="0.4" d="M50.7024 31.6743V35.0451H47.3663" stroke="#415659" stroke-width="1.8662" stroke-miterlimit="10"/>
<path opacity="0.4" d="M43.4575 41.3666H30.877C30.0716 41.3666 29.4189 40.714 29.4189 39.9086C29.4189 39.1033 30.0716 38.4506 30.877 38.4506H43.3499" fill="#415659"/>
<path opacity="0.4" d="M43.35 38.4506H50.0707C50.8761 38.4506 51.5287 39.1033 51.5287 39.9086C51.5287 40.714 50.8761 41.3666 50.0707 41.3666H43.4576" fill="#415659"/>
<path opacity="0.4" d="M58.4438 26.5366C58.4438 26.5366 58.9228 27.5086 59.5547 29.0013C59.874 29.7442 60.2316 30.619 60.603 31.5598C60.7835 32.0319 60.9814 32.5144 61.1654 33.0143C61.3529 33.5107 61.5403 34.0175 61.7278 34.5209C61.9083 35.0277 62.0923 35.5346 62.2693 36.0345C62.4498 36.5344 62.613 37.0308 62.7762 37.5064C63.1025 38.4645 63.3906 39.3636 63.6267 40.1377C64.1057 41.6825 64.3696 42.7344 64.3696 42.7344C64.3696 42.7344 63.8905 41.7624 63.2587 40.2696C62.9393 39.5267 62.5818 38.6519 62.2103 37.7112C62.0298 37.2391 61.8319 36.7565 61.6479 36.2566C61.4605 35.7602 61.273 35.2534 61.0856 34.75C60.905 34.2432 60.7211 33.7364 60.544 33.2365C60.3635 32.7366 60.2003 32.2402 60.0372 31.7646C59.7143 30.8064 59.4227 29.9073 59.1867 29.1332C58.7076 27.5884 58.4438 26.5366 58.4438 26.5366Z" fill="#415659"/>
<path opacity="0.4" d="M54.5939 24.9467L58.5757 25.2244C59.1763 25.266 59.7143 25.4917 60.1517 25.8423C60.846 26.4047 61.2661 27.2864 61.2001 28.2411C61.1932 28.314 61.1897 28.3869 61.1758 28.4563L65.6471 43.2239C65.6471 43.2239 65.6019 44.0223 65.5394 45.3692C65.536 45.3727 65.536 45.3727 65.536 45.3762C65.2617 50.7153 64.5883 64.7122 64.5813 72.6028C64.5779 74.7898 64.6265 76.5117 64.748 77.4455H48.8591V75.2203C48.8591 75.2168 48.8556 75.2168 48.8522 75.2133C48.8452 75.2029 48.8383 75.1995 48.8348 75.1925C45.4987 69.8048 43.3117 63.3375 42.607 58.3907C42.5098 57.7554 42.4473 57.1444 42.4091 56.5577C42.4057 56.5404 42.4057 56.523 42.3987 56.5022C42.305 55.5371 41.9058 53.2043 41.6176 51.5693C41.4475 50.6077 41.3156 49.8891 41.3017 49.8301C41.3017 49.8266 41.3017 49.8266 41.3017 49.8266L35.803 42.3282L35.0705 41.3319C33.9561 39.8184 34.2894 37.6904 35.803 36.5795C36.4105 36.1317 37.1152 35.9199 37.8164 35.9199C38.8648 35.9199 39.8958 36.4025 40.5623 37.3085L41.6176 38.7526L43.4367 41.2313L44.2421 42.3282L46.1652 44.9527L47.9912 47.4486C47.9912 47.4486 47.9982 47.4521 48.0016 47.4625C48.1683 47.6187 50.4699 49.6773 52.3444 46.6849C52.3583 46.3864 52.3757 46.0878 52.4104 45.7962C52.9867 39.8218 56.649 35.368 56.649 35.368L55.2257 30.6676L54.5835 30.6225" fill="#415659"/>
</g>
<path d="M49.7442 25.5326L49.0013 25.2028L46.915 24.2759L43.7178 22.863C43.6727 22.8422 43.631 22.8214 43.5893 22.7901L41.0205 22.3909L40.8365 22.3632C40.465 22.3805 40.1179 22.3909 39.7846 22.3909C38.4065 22.3909 37.3407 22.2278 36.5249 21.9639C35.5633 21.655 34.9419 21.1967 34.5462 20.6899C33.3798 19.2007 34.1921 17.274 34.1921 17.274L42.784 16.5519L45.6687 16.9685L45.7139 16.965C45.9117 16.965 46.1027 16.9998 46.2832 17.0796L49.5568 18.5341" fill="#F9CDA5"/>
<path d="M48.8208 42.1887L49.6887 28.8374L49.3866 29.2887C49.3866 27.4975 48.0883 25.4493 46.9115 24.2759L48.9978 25.1993L51.3931 26.2616L53.056 31.7569C53.0594 31.7569 49.3971 36.2143 48.8208 42.1887Z" fill="#CE926A"/>
<path d="M37.3825 53.3112H29.3981C26.4161 53.3112 24 50.895 24 47.913V5.39811C24 2.41613 26.4161 0 29.3981 0H37.3825" fill="#232731"/>
<path d="M37.3824 0H45.5924C48.5744 0 50.9905 2.41613 50.9905 5.39811V47.913C50.9905 50.895 48.5744 53.3112 45.5924 53.3112H37.3824" fill="#232731"/>
<path d="M49.3069 5.84943H25.576V44.3166H49.3069V5.84943Z" fill="white"/>
<path d="M40.3088 48.2809C40.3088 49.6626 39.1632 50.7839 37.7504 50.7839C36.3375 50.7839 35.1919 49.6626 35.1919 48.2809C35.1919 46.8993 36.3375 45.778 37.7504 45.778C39.1632 45.778 40.3088 46.8993 40.3088 48.2809Z" fill="#2C2A3F"/>
<path d="M48.1265 3.71105C48.1265 4.14499 47.7724 4.49908 47.3385 4.49908H28.3288C27.8949 4.49908 27.5408 4.14499 27.5408 3.71105C27.5408 3.27712 27.8949 2.92303 28.3288 2.92303H47.3385C47.7724 2.92303 48.1265 3.27712 48.1265 3.71105Z" fill="#464D5D"/>
<path d="M45.4847 28.9902H44.7488V29.7261H45.4847V28.9902Z" fill="white"/>
<path d="M45.4847 28.2542H44.7488V28.9902H45.4847V28.2542Z" fill="white"/>
<path d="M45.4847 27.5148H44.7488V28.2542H45.4847V27.5148Z" fill="white"/>
<path d="M45.4847 26.7791H44.7488V27.515H45.4847V26.7791Z" fill="white"/>
<path d="M45.4847 26.043H44.7488V26.7789H45.4847V26.043Z" fill="white"/>
<path d="M45.4847 25.3071H44.7488V26.043H45.4847V25.3071Z" fill="white"/>
<path d="M45.4847 24.5745H44.7488V25.3069H45.4847V24.5745Z" fill="white"/>
<path d="M45.4847 23.8386H44.7488V24.5745H45.4847V23.8386Z" fill="white"/>
<path d="M45.4847 23.0991H44.7488V23.835H45.4847V23.0991Z" fill="white"/>
<path d="M45.4847 22.3631H44.7488V23.099H45.4847V22.3631Z" fill="white"/>
<path d="M45.4847 21.6272H44.7488V22.3631H45.4847V21.6272Z" fill="white"/>
<path d="M45.4847 20.8914H44.7488V21.6273H45.4847V20.8914Z" fill="white"/>
<path d="M45.4847 20.1553H44.7488V20.8913H45.4847V20.1553Z" fill="white"/>
<path d="M45.4847 19.416H44.7488V20.1554H45.4847V19.416Z" fill="white"/>
<path d="M45.4847 18.6799H44.7488V19.4159H45.4847V18.6799Z" fill="white"/>
<path d="M45.4847 17.9476H44.7488V18.6836H45.4847V17.9476Z" fill="white"/>
<path d="M45.4847 17.2081H44.7488V17.944H45.4847V17.2081Z" fill="white"/>
<path d="M45.4847 16.4755H44.7488V17.2079H45.4847V16.4755Z" fill="white"/>
<path d="M45.4847 15.7397H44.7488V16.4757H45.4847V15.7397Z" fill="white"/>
<path d="M45.4847 15.0003H44.7488V15.7363H45.4847V15.0003Z" fill="white"/>
<path d="M45.4847 14.2642H44.7488V15.0002H45.4847V14.2642Z" fill="white"/>
<path d="M45.4847 13.5283H44.7488V14.2643H45.4847V13.5283Z" fill="white"/>
<path d="M44.7488 28.9902H44.0128V29.7261H44.7488V28.9902Z" fill="white"/>
<path d="M44.7488 28.2542H44.0128V28.9902H44.7488V28.2542Z" fill="black"/>
<path d="M44.7488 27.5148H44.0128V28.2542H44.7488V27.5148Z" fill="black"/>
<path d="M44.7488 26.7791H44.0128V27.515H44.7488V26.7791Z" fill="black"/>
<path d="M44.7488 26.043H44.0128V26.7789H44.7488V26.043Z" fill="white"/>
<path d="M44.7488 25.3071H44.0128V26.043H44.7488V25.3071Z" fill="black"/>
<path d="M44.7488 24.5745H44.0128V25.3069H44.7488V24.5745Z" fill="black"/>
<path d="M44.7488 23.8386H44.0128V24.5745H44.7488V23.8386Z" fill="black"/>
<path d="M44.7488 23.0991H44.0128V23.835H44.7488V23.0991Z" fill="black"/>
<path d="M44.7488 22.3631H44.0128V23.099H44.7488V22.3631Z" fill="white"/>
<path d="M44.7488 21.6272H44.0128V22.3631H44.7488V21.6272Z" fill="black"/>
<path d="M44.7488 20.8914H44.0128V21.6273H44.7488V20.8914Z" fill="black"/>
<path d="M44.7488 20.1553H44.0128V20.8913H44.7488V20.1553Z" fill="white"/>
<path d="M44.7488 19.416H44.0128V20.1554H44.7488V19.416Z" fill="black"/>
<path d="M44.7488 18.6799H44.0128V19.4159H44.7488V18.6799Z" fill="black"/>
<path d="M44.7488 17.9476H44.0128V18.6836H44.7488V17.9476Z" fill="white"/>
<path d="M44.7488 17.2081H44.0128V17.944H44.7488V17.2081Z" fill="black"/>
<path d="M44.7488 16.4755H44.0128V17.2079H44.7488V16.4755Z" fill="black"/>
<path d="M44.7488 15.7397H44.0128V16.4757H44.7488V15.7397Z" fill="black"/>
<path d="M44.7488 15.0003H44.0128V15.7363H44.7488V15.0003Z" fill="black"/>
<path d="M44.7488 14.2642H44.0128V15.0002H44.7488V14.2642Z" fill="black"/>
<path d="M44.7488 13.5283H44.0128V14.2643H44.7488V13.5283Z" fill="white"/>
<path d="M44.0128 28.9902H43.2734V29.7261H44.0128V28.9902Z" fill="white"/>
<path d="M44.0128 28.2542H43.2734V28.9902H44.0128V28.2542Z" fill="white"/>
<path d="M44.0128 27.5148H43.2734V28.2542H44.0128V27.5148Z" fill="white"/>
<path d="M44.0128 26.7791H43.2734V27.515H44.0128V26.7791Z" fill="white"/>
<path d="M44.0128 26.043H43.2734V26.7789H44.0128V26.043Z" fill="black"/>
<path d="M44.0128 25.3071H43.2734V26.043H44.0128V25.3071Z" fill="white"/>
<path d="M44.0128 24.5745H43.2734V25.3069H44.0128V24.5745Z" fill="white"/>
<path d="M44.0128 23.8386H43.2734V24.5745H44.0128V23.8386Z" fill="white"/>
<path d="M44.0128 23.0991H43.2734V23.835H44.0128V23.0991Z" fill="black"/>
<path d="M44.0128 22.3631H43.2734V23.099H44.0128V22.3631Z" fill="white"/>
<path d="M44.0128 21.6272H43.2734V22.3631H44.0128V21.6272Z" fill="white"/>
<path d="M44.0128 20.8914H43.2734V21.6273H44.0128V20.8914Z" fill="black"/>
<path d="M44.0128 20.1553H43.2734V20.8913H44.0128V20.1553Z" fill="white"/>
<path d="M44.0128 19.416H43.2734V20.1554H44.0128V19.416Z" fill="black"/>
<path d="M44.0128 18.6799H43.2734V19.4159H44.0128V18.6799Z" fill="white"/>
<path d="M44.0128 17.9476H43.2734V18.6836H44.0128V17.9476Z" fill="white"/>
<path d="M44.0128 17.2081H43.2734V17.944H44.0128V17.2081Z" fill="black"/>
<path d="M44.0128 16.4755H43.2734V17.2079H44.0128V16.4755Z" fill="white"/>
<path d="M44.0128 15.7397H43.2734V16.4757H44.0128V15.7397Z" fill="white"/>
<path d="M44.0128 15.0003H43.2734V15.7363H44.0128V15.0003Z" fill="white"/>
<path d="M44.0128 14.2642H43.2734V15.0002H44.0128V14.2642Z" fill="black"/>
<path d="M44.0128 13.5283H43.2734V14.2643H44.0128V13.5283Z" fill="white"/>
<path d="M43.2734 28.9902H42.5374V29.7261H43.2734V28.9902Z" fill="white"/>
<path d="M43.2734 28.2542H42.5374V28.9902H43.2734V28.2542Z" fill="black"/>
<path d="M43.2734 27.5148H42.5374V28.2542H43.2734V27.5148Z" fill="white"/>
<path d="M43.2734 26.7791H42.5374V27.515H43.2734V26.7791Z" fill="black"/>
<path d="M43.2734 26.043H42.5374V26.7789H43.2734V26.043Z" fill="white"/>
<path d="M43.2734 25.3071H42.5374V26.043H43.2734V25.3071Z" fill="black"/>
<path d="M43.2734 24.5745H42.5374V25.3069H43.2734V24.5745Z" fill="white"/>
<path d="M43.2734 23.8386H42.5374V24.5745H43.2734V23.8386Z" fill="white"/>
<path d="M43.2734 23.0991H42.5374V23.835H43.2734V23.0991Z" fill="black"/>
<path d="M43.2734 22.3631H42.5374V23.099H43.2734V22.3631Z" fill="black"/>
<path d="M43.2734 21.6272H42.5374V22.3631H43.2734V21.6272Z" fill="black"/>
<path d="M43.2734 20.8914H42.5374V21.6273H43.2734V20.8914Z" fill="black"/>
<path d="M43.2734 20.1553H42.5374V20.8913H43.2734V20.1553Z" fill="black"/>
<path d="M43.2734 19.416H42.5374V20.1554H43.2734V19.416Z" fill="black"/>
<path d="M43.2734 18.6799H42.5374V19.4159H43.2734V18.6799Z" fill="white"/>
<path d="M43.2734 17.9476H42.5374V18.6836H43.2734V17.9476Z" fill="white"/>
<path d="M43.2734 17.2081H42.5374V17.944H43.2734V17.2081Z" fill="black"/>
<path d="M43.2734 16.4755H42.5374V17.2079H43.2734V16.4755Z" fill="white"/>
<path d="M43.2734 15.7397H42.5374V16.4757H43.2734V15.7397Z" fill="black"/>
<path d="M43.2734 15.0003H42.5374V15.7363H43.2734V15.0003Z" fill="white"/>
<path d="M43.2734 14.2642H42.5374V15.0002H43.2734V14.2642Z" fill="black"/>
<path d="M43.2734 13.5283H42.5374V14.2643H43.2734V13.5283Z" fill="white"/>
<path d="M42.5375 28.9902H41.8016V29.7261H42.5375V28.9902Z" fill="white"/>
<path d="M42.5375 28.2542H41.8016V28.9902H42.5375V28.2542Z" fill="black"/>
<path d="M42.5375 27.5148H41.8016V28.2542H42.5375V27.5148Z" fill="white"/>
<path d="M42.5375 26.7791H41.8016V27.515H42.5375V26.7791Z" fill="white"/>
<path d="M42.5375 26.043H41.8016V26.7789H42.5375V26.043Z" fill="white"/>
<path d="M42.5375 25.3071H41.8016V26.043H42.5375V25.3071Z" fill="white"/>
<path d="M42.5375 24.5745H41.8016V25.3069H42.5375V24.5745Z" fill="white"/>
<path d="M42.5375 23.8386H41.8016V24.5745H42.5375V23.8386Z" fill="white"/>
<path d="M42.5375 23.0991H41.8016V23.835H42.5375V23.0991Z" fill="white"/>
<path d="M42.5375 22.3631H41.8016V23.099H42.5375V22.3631Z" fill="white"/>
<path d="M42.5375 21.6272H41.8016V22.3631H42.5375V21.6272Z" fill="white"/>
<path d="M42.5375 20.8914H41.8016V21.6273H42.5375V20.8914Z" fill="white"/>
<path d="M42.5375 20.1553H41.8016V20.8913H42.5375V20.1553Z" fill="white"/>
<path d="M42.5375 19.416H41.8016V20.1554H42.5375V19.416Z" fill="black"/>
<path d="M42.5375 18.6799H41.8016V19.4159H42.5375V18.6799Z" fill="white"/>
<path d="M42.5375 17.9476H41.8016V18.6836H42.5375V17.9476Z" fill="white"/>
<path d="M42.5375 17.2081H41.8016V17.944H42.5375V17.2081Z" fill="black"/>
<path d="M42.5375 16.4755H41.8016V17.2079H42.5375V16.4755Z" fill="white"/>
<path d="M42.5375 15.7397H41.8016V16.4757H42.5375V15.7397Z" fill="white"/>
<path d="M42.5375 15.0003H41.8016V15.7363H42.5375V15.0003Z" fill="white"/>
<path d="M42.5375 14.2642H41.8016V15.0002H42.5375V14.2642Z" fill="black"/>
<path d="M42.5375 13.5283H41.8016V14.2643H42.5375V13.5283Z" fill="white"/>
<path d="M41.8015 28.9902H41.0656V29.7261H41.8015V28.9902Z" fill="white"/>
<path d="M41.8015 28.2542H41.0656V28.9902H41.8015V28.2542Z" fill="black"/>
<path d="M41.8015 27.5148H41.0656V28.2542H41.8015V27.5148Z" fill="white"/>
<path d="M41.8015 26.7791H41.0656V27.515H41.8015V26.7791Z" fill="black"/>
<path d="M41.8015 26.043H41.0656V26.7789H41.8015V26.043Z" fill="white"/>
<path d="M41.8015 25.3071H41.0656V26.043H41.8015V25.3071Z" fill="white"/>
<path d="M41.8015 24.5745H41.0656V25.3069H41.8015V24.5745Z" fill="white"/>
<path d="M41.8015 23.8386H41.0656V24.5745H41.8015V23.8386Z" fill="white"/>
<path d="M41.8015 23.0991H41.0656V23.835H41.8015V23.0991Z" fill="white"/>
<path d="M41.8015 22.3631H41.0656V23.099H41.8015V22.3631Z" fill="white"/>
<path d="M41.8015 21.6272H41.0656V22.3631H41.8015V21.6272Z" fill="black"/>
<path d="M41.8015 20.8914H41.0656V21.6273H41.8015V20.8914Z" fill="black"/>
<path d="M41.8015 20.1553H41.0656V20.8913H41.8015V20.1553Z" fill="white"/>
<path d="M41.8015 19.416H41.0656V20.1554H41.8015V19.416Z" fill="black"/>
<path d="M41.8015 18.6799H41.0656V19.4159H41.8015V18.6799Z" fill="black"/>
<path d="M41.8015 17.9476H41.0656V18.6836H41.8015V17.9476Z" fill="white"/>
<path d="M41.8015 17.2081H41.0656V17.944H41.8015V17.2081Z" fill="black"/>
<path d="M41.8015 16.4755H41.0656V17.2079H41.8015V16.4755Z" fill="black"/>
<path d="M41.8015 15.7397H41.0656V16.4757H41.8015V15.7397Z" fill="black"/>
<path d="M41.8015 15.0003H41.0656V15.7363H41.8015V15.0003Z" fill="black"/>
<path d="M41.8015 14.2642H41.0656V15.0002H41.8015V14.2642Z" fill="black"/>
<path d="M41.8015 13.5283H41.0656V14.2643H41.8015V13.5283Z" fill="white"/>
<path d="M41.0656 28.9902H40.3297V29.7261H41.0656V28.9902Z" fill="white"/>
<path d="M41.0656 28.2542H40.3297V28.9902H41.0656V28.2542Z" fill="black"/>
<path d="M41.0656 27.5148H40.3297V28.2542H41.0656V27.5148Z" fill="white"/>
<path d="M41.0656 26.7791H40.3297V27.515H41.0656V26.7791Z" fill="black"/>
<path d="M41.0656 26.043H40.3297V26.7789H41.0656V26.043Z" fill="white"/>
<path d="M41.0656 25.3071H40.3297V26.043H41.0656V25.3071Z" fill="white"/>
<path d="M41.0656 24.5745H40.3297V25.3069H41.0656V24.5745Z" fill="black"/>
<path d="M41.0656 23.8386H40.3297V24.5745H41.0656V23.8386Z" fill="black"/>
<path d="M41.0656 23.0991H40.3297V23.835H41.0656V23.0991Z" fill="white"/>
<path d="M41.0656 22.3631H40.3297V23.099H41.0656V22.3631Z" fill="white"/>
<path d="M41.0656 21.6272H40.3297V22.3631H41.0656V21.6272Z" fill="black"/>
<path d="M41.0656 20.8914H40.3297V21.6273H41.0656V20.8914Z" fill="white"/>
<path d="M41.0656 20.1553H40.3297V20.8913H41.0656V20.1553Z" fill="white"/>
<path d="M41.0656 19.416H40.3297V20.1554H41.0656V19.416Z" fill="white"/>
<path d="M41.0656 18.6799H40.3297V19.4159H41.0656V18.6799Z" fill="white"/>
<path d="M41.0656 17.9476H40.3297V18.6836H41.0656V17.9476Z" fill="white"/>
<path d="M41.0656 17.2081H40.3297V17.944H41.0656V17.2081Z" fill="white"/>
<path d="M41.0656 16.4755H40.3297V17.2079H41.0656V16.4755Z" fill="white"/>
<path d="M41.0656 15.7397H40.3297V16.4757H41.0656V15.7397Z" fill="white"/>
<path d="M41.0656 15.0003H40.3297V15.7363H41.0656V15.0003Z" fill="white"/>
<path d="M41.0656 14.2642H40.3297V15.0002H41.0656V14.2642Z" fill="white"/>
<path d="M41.0656 13.5283H40.3297V14.2643H41.0656V13.5283Z" fill="white"/>
<path d="M40.3331 28.9902H39.5972V29.7261H40.3331V28.9902Z" fill="white"/>
<path d="M40.3331 28.2542H39.5972V28.9902H40.3331V28.2542Z" fill="black"/>
<path d="M40.3331 27.5148H39.5972V28.2542H40.3331V27.5148Z" fill="white"/>
<path d="M40.3331 26.7791H39.5972V27.515H40.3331V26.7791Z" fill="black"/>
<path d="M40.3331 26.043H39.5972V26.7789H40.3331V26.043Z" fill="white"/>
<path d="M40.3331 25.3071H39.5972V26.043H40.3331V25.3071Z" fill="black"/>
<path d="M40.3331 24.5745H39.5972V25.3069H40.3331V24.5745Z" fill="black"/>
<path d="M40.3331 23.8386H39.5972V24.5745H40.3331V23.8386Z" fill="black"/>
<path d="M40.3331 23.0991H39.5972V23.835H40.3331V23.0991Z" fill="black"/>
<path d="M40.3331 22.3631H39.5972V23.099H40.3331V22.3631Z" fill="white"/>
<path d="M40.3331 21.6272H39.5972V22.3631H40.3331V21.6272Z" fill="black"/>
<path d="M40.3331 20.8914H39.5972V21.6273H40.3331V20.8914Z" fill="black"/>
<path d="M40.3331 20.1553H39.5972V20.8913H40.3331V20.1553Z" fill="white"/>
<path d="M40.3331 19.416H39.5972V20.1554H40.3331V19.416Z" fill="white"/>
<path d="M40.3331 18.6799H39.5972V19.4159H40.3331V18.6799Z" fill="black"/>
<path d="M40.3331 17.9476H39.5972V18.6836H40.3331V17.9476Z" fill="white"/>
<path d="M40.3331 17.2081H39.5972V17.944H40.3331V17.2081Z" fill="white"/>
<path d="M40.3331 16.4755H39.5972V17.2079H40.3331V16.4755Z" fill="black"/>
<path d="M40.3331 15.7397H39.5972V16.4757H40.3331V15.7397Z" fill="white"/>
<path d="M40.3331 15.0003H39.5972V15.7363H40.3331V15.0003Z" fill="white"/>
<path d="M40.3331 14.2642H39.5972V15.0002H40.3331V14.2642Z" fill="black"/>
<path d="M40.3331 13.5283H39.5972V14.2643H40.3331V13.5283Z" fill="white"/>
<path d="M39.5937 28.9902H38.8542V29.7261H39.5937V28.9902Z" fill="white"/>
<path d="M39.5937 28.2542H38.8542V28.9902H39.5937V28.2542Z" fill="white"/>
<path d="M39.5937 27.5148H38.8542V28.2542H39.5937V27.5148Z" fill="white"/>
<path d="M39.5937 26.7791H38.8542V27.515H39.5937V26.7791Z" fill="black"/>
<path d="M39.5937 26.043H38.8542V26.7789H39.5937V26.043Z" fill="white"/>
<path d="M39.5937 25.3071H38.8542V26.043H39.5937V25.3071Z" fill="black"/>
<path d="M39.5937 24.5745H38.8542V25.3069H39.5937V24.5745Z" fill="white"/>
<path d="M39.5937 23.8386H38.8542V24.5745H39.5937V23.8386Z" fill="white"/>
<path d="M39.5937 23.0991H38.8542V23.835H39.5937V23.0991Z" fill="black"/>
<path d="M39.5937 22.3631H38.8542V23.099H39.5937V22.3631Z" fill="white"/>
<path d="M39.5937 21.6272H38.8542V22.3631H39.5937V21.6272Z" fill="white"/>
<path d="M39.5937 20.8914H38.8542V21.6273H39.5937V20.8914Z" fill="white"/>
<path d="M39.5937 20.1553H38.8542V20.8913H39.5937V20.1553Z" fill="white"/>
<path d="M39.5937 19.416H38.8542V20.1554H39.5937V19.416Z" fill="white"/>
<path d="M39.5937 18.6799H38.8542V19.4159H39.5937V18.6799Z" fill="black"/>
<path d="M39.5937 17.9476H38.8542V18.6836H39.5937V17.9476Z" fill="black"/>
<path d="M39.5937 17.2081H38.8542V17.944H39.5937V17.2081Z" fill="white"/>
<path d="M39.5937 16.4755H38.8542V17.2079H39.5937V16.4755Z" fill="white"/>
<path d="M39.5937 15.7397H38.8542V16.4757H39.5937V15.7397Z" fill="black"/>
<path d="M39.5937 15.0003H38.8542V15.7363H39.5937V15.0003Z" fill="black"/>
<path d="M39.5937 14.2642H38.8542V15.0002H39.5937V14.2642Z" fill="black"/>
<path d="M39.5937 13.5283H38.8542V14.2643H39.5937V13.5283Z" fill="white"/>
<path d="M38.8577 28.9902H38.1218V29.7261H38.8577V28.9902Z" fill="white"/>
<path d="M38.8577 28.2542H38.1218V28.9902H38.8577V28.2542Z" fill="black"/>
<path d="M38.8577 27.5148H38.1218V28.2542H38.8577V27.5148Z" fill="white"/>
<path d="M38.8577 26.7791H38.1218V27.515H38.8577V26.7791Z" fill="white"/>
<path d="M38.8577 26.043H38.1218V26.7789H38.8577V26.043Z" fill="white"/>
<path d="M38.8577 25.3071H38.1218V26.043H38.8577V25.3071Z" fill="white"/>
<path d="M38.8577 24.5745H38.1218V25.3069H38.8577V24.5745Z" fill="black"/>
<path d="M38.8577 23.8386H38.1218V24.5745H38.8577V23.8386Z" fill="white"/>
<path d="M38.8577 23.0991H38.1218V23.835H38.8577V23.0991Z" fill="white"/>
<path d="M38.8577 22.3631H38.1218V23.099H38.8577V22.3631Z" fill="black"/>
<path d="M38.8577 21.6272H38.1218V22.3631H38.8577V21.6272Z" fill="black"/>
<path d="M38.8577 20.8914H38.1218V21.6273H38.8577V20.8914Z" fill="black"/>
<path d="M38.8577 20.1553H38.1218V20.8913H38.8577V20.1553Z" fill="black"/>
<path d="M38.8577 19.416H38.1218V20.1554H38.8577V19.416Z" fill="white"/>
<path d="M38.8577 18.6799H38.1218V19.4159H38.8577V18.6799Z" fill="black"/>
<path d="M38.8577 17.9476H38.1218V18.6836H38.8577V17.9476Z" fill="white"/>
<path d="M38.8577 17.2081H38.1218V17.944H38.8577V17.2081Z" fill="black"/>
<path d="M38.8577 16.4755H38.1218V17.2079H38.8577V16.4755Z" fill="white"/>
<path d="M38.8577 15.7397H38.1218V16.4757H38.8577V15.7397Z" fill="black"/>
<path d="M38.8577 15.0003H38.1218V15.7363H38.8577V15.0003Z" fill="white"/>
<path d="M38.8577 14.2642H38.1218V15.0002H38.8577V14.2642Z" fill="black"/>
<path d="M38.8577 13.5283H38.1218V14.2643H38.8577V13.5283Z" fill="white"/>
<path d="M38.1218 28.9902H37.3859V29.7261H38.1218V28.9902Z" fill="white"/>
<path d="M38.1218 28.2542H37.3859V28.9902H38.1218V28.2542Z" fill="white"/>
<path d="M38.1218 27.5148H37.3859V28.2542H38.1218V27.5148Z" fill="black"/>
<path d="M38.1218 26.7791H37.3859V27.515H38.1218V26.7791Z" fill="black"/>
<path d="M38.1218 26.043H37.3859V26.7789H38.1218V26.043Z" fill="black"/>
<path d="M38.1218 25.3071H37.3859V26.043H38.1218V25.3071Z" fill="black"/>
<path d="M38.1218 24.5745H37.3859V25.3069H38.1218V24.5745Z" fill="black"/>
<path d="M38.1218 23.8386H37.3859V24.5745H38.1218V23.8386Z" fill="white"/>
<path d="M38.1218 23.0991H37.3859V23.835H38.1218V23.0991Z" fill="white"/>
<path d="M38.1218 22.3631H37.3859V23.099H38.1218V22.3631Z" fill="white"/>
<path d="M38.1218 21.6272H37.3859V22.3631H38.1218V21.6272Z" fill="white"/>
<path d="M38.1218 20.8914H37.3859V21.6273H38.1218V20.8914Z" fill="white"/>
<path d="M38.1218 20.1553H37.3859V20.8913H38.1218V20.1553Z" fill="white"/>
<path d="M38.1218 19.416H37.3859V20.1554H38.1218V19.416Z" fill="white"/>
<path d="M38.1218 18.6799H37.3859V19.4159H38.1218V18.6799Z" fill="white"/>
<path d="M38.1218 17.9476H37.3859V18.6836H38.1218V17.9476Z" fill="white"/>
<path d="M38.1218 17.2081H37.3859V17.944H38.1218V17.2081Z" fill="white"/>
<path d="M38.1218 16.4755H37.3859V17.2079H38.1218V16.4755Z" fill="white"/>
<path d="M38.1218 15.7397H37.3859V16.4757H38.1218V15.7397Z" fill="white"/>
<path d="M38.1218 15.0003H37.3859V15.7363H38.1218V15.0003Z" fill="white"/>
<path d="M38.1218 14.2642H37.3859V15.0002H38.1218V14.2642Z" fill="black"/>
<path d="M38.1218 13.5283H37.3859V14.2643H38.1218V13.5283Z" fill="white"/>
<path d="M37.3858 28.9902H36.6498V29.7261H37.3858V28.9902Z" fill="white"/>
<path d="M37.3858 28.2542H36.6498V28.9902H37.3858V28.2542Z" fill="black"/>
<path d="M37.3858 27.5148H36.6498V28.2542H37.3858V27.5148Z" fill="white"/>
<path d="M37.3858 26.7791H36.6498V27.515H37.3858V26.7791Z" fill="white"/>
<path d="M37.3858 26.043H36.6498V26.7789H37.3858V26.043Z" fill="white"/>
<path d="M37.3858 25.3071H36.6498V26.043H37.3858V25.3071Z" fill="white"/>
<path d="M37.3858 24.5745H36.6498V25.3069H37.3858V24.5745Z" fill="white"/>
<path d="M37.3858 23.8386H36.6498V24.5745H37.3858V23.8386Z" fill="white"/>
<path d="M37.3858 23.0991H36.6498V23.835H37.3858V23.0991Z" fill="white"/>
<path d="M37.3858 22.3631H36.6498V23.099H37.3858V22.3631Z" fill="white"/>
<path d="M37.3858 21.6272H36.6498V22.3631H37.3858V21.6272Z" fill="white"/>
<path d="M37.3858 20.8914H36.6498V21.6273H37.3858V20.8914Z" fill="white"/>
<path d="M37.3858 20.1553H36.6498V20.8913H37.3858V20.1553Z" fill="black"/>
<path d="M37.3858 19.416H36.6498V20.1554H37.3858V19.416Z" fill="white"/>
<path d="M37.3858 18.6799H36.6498V19.4159H37.3858V18.6799Z" fill="white"/>
<path d="M37.3858 17.9476H36.6498V18.6836H37.3858V17.9476Z" fill="black"/>
<path d="M37.3858 17.2081H36.6498V17.944H37.3858V17.2081Z" fill="black"/>
<path d="M37.3858 16.4755H36.6498V17.2079H37.3858V16.4755Z" fill="white"/>
<path d="M37.3858 15.7397H36.6498V16.4757H37.3858V15.7397Z" fill="white"/>
<path d="M37.3858 15.0003H36.6498V15.7363H37.3858V15.0003Z" fill="black"/>
<path d="M37.3858 14.2642H36.6498V15.0002H37.3858V14.2642Z" fill="white"/>
<path d="M37.3858 13.5283H36.6498V14.2643H37.3858V13.5283Z" fill="white"/>
<path d="M36.6499 28.9902H35.9139V29.7261H36.6499V28.9902Z" fill="white"/>
<path d="M36.6499 28.2542H35.9139V28.9902H36.6499V28.2542Z" fill="black"/>
<path d="M36.6499 27.5148H35.9139V28.2542H36.6499V27.5148Z" fill="white"/>
<path d="M36.6499 26.7791H35.9139V27.515H36.6499V26.7791Z" fill="white"/>
<path d="M36.6499 26.043H35.9139V26.7789H36.6499V26.043Z" fill="white"/>
<path d="M36.6499 25.3071H35.9139V26.043H36.6499V25.3071Z" fill="black"/>
<path d="M36.6499 24.5745H35.9139V25.3069H36.6499V24.5745Z" fill="white"/>
<path d="M36.6499 23.8386H35.9139V24.5745H36.6499V23.8386Z" fill="white"/>
<path d="M36.6499 23.0991H35.9139V23.835H36.6499V23.0991Z" fill="white"/>
<path d="M36.6499 22.3631H35.9139V23.099H36.6499V22.3631Z" fill="black"/>
<path d="M36.6499 21.6272H35.9139V22.3631H36.6499V21.6272Z" fill="white"/>
<path d="M36.6499 20.8914H35.9139V21.6273H36.6499V20.8914Z" fill="black"/>
<path d="M36.6499 20.1553H35.9139V20.8913H36.6499V20.1553Z" fill="white"/>
<path d="M36.6499 19.416H35.9139V20.1554H36.6499V19.416Z" fill="white"/>
<path d="M36.6499 18.6799H35.9139V19.4159H36.6499V18.6799Z" fill="black"/>
<path d="M36.6499 17.9476H35.9139V18.6836H36.6499V17.9476Z" fill="black"/>
<path d="M36.6499 17.2081H35.9139V17.944H36.6499V17.2081Z" fill="black"/>
<path d="M36.6499 16.4755H35.9139V17.2079H36.6499V16.4755Z" fill="black"/>
<path d="M36.6499 15.7397H35.9139V16.4757H36.6499V15.7397Z" fill="black"/>
<path d="M36.6499 15.0003H35.9139V15.7363H36.6499V15.0003Z" fill="black"/>
<path d="M36.6499 14.2642H35.9139V15.0002H36.6499V14.2642Z" fill="black"/>
<path d="M36.6499 13.5283H35.9139V14.2643H36.6499V13.5283Z" fill="white"/>
<path d="M35.9139 28.9902H35.1744V29.7261H35.9139V28.9902Z" fill="white"/>
<path d="M35.9139 28.2542H35.1744V28.9902H35.9139V28.2542Z" fill="white"/>
<path d="M35.9139 27.5148H35.1744V28.2542H35.9139V27.5148Z" fill="white"/>
<path d="M35.9139 26.7791H35.1744V27.515H35.9139V26.7791Z" fill="white"/>
<path d="M35.9139 26.043H35.1744V26.7789H35.9139V26.043Z" fill="white"/>
<path d="M35.9139 25.3071H35.1744V26.043H35.9139V25.3071Z" fill="black"/>
<path d="M35.9139 24.5745H35.1744V25.3069H35.9139V24.5745Z" fill="black"/>
<path d="M35.9139 23.8386H35.1744V24.5745H35.9139V23.8386Z" fill="black"/>
<path d="M35.9139 23.0991H35.1744V23.835H35.9139V23.0991Z" fill="black"/>
<path d="M35.9139 22.3631H35.1744V23.099H35.9139V22.3631Z" fill="white"/>
<path d="M35.9139 21.6272H35.1744V22.3631H35.9139V21.6272Z" fill="black"/>
<path d="M35.9139 20.8914H35.1744V21.6273H35.9139V20.8914Z" fill="black"/>
<path d="M35.9139 20.1553H35.1744V20.8913H35.9139V20.1553Z" fill="black"/>
<path d="M35.9139 19.416H35.1744V20.1554H35.9139V19.416Z" fill="white"/>
<path d="M35.9139 18.6799H35.1744V19.4159H35.9139V18.6799Z" fill="black"/>
<path d="M35.9139 17.9476H35.1744V18.6836H35.9139V17.9476Z" fill="white"/>
<path d="M35.9139 17.2081H35.1744V17.944H35.9139V17.2081Z" fill="black"/>
<path d="M35.9139 16.4755H35.1744V17.2079H35.9139V16.4755Z" fill="white"/>
<path d="M35.9139 15.7397H35.1744V16.4757H35.9139V15.7397Z" fill="white"/>
<path d="M35.9139 15.0003H35.1744V15.7363H35.9139V15.0003Z" fill="black"/>
<path d="M35.9139 14.2642H35.1744V15.0002H35.9139V14.2642Z" fill="white"/>
<path d="M35.9139 13.5283H35.1744V14.2643H35.9139V13.5283Z" fill="white"/>
<path d="M35.1745 28.9902H34.4385V29.7261H35.1745V28.9902Z" fill="white"/>
<path d="M35.1745 28.2542H34.4385V28.9902H35.1745V28.2542Z" fill="black"/>
<path d="M35.1745 27.5148H34.4385V28.2542H35.1745V27.5148Z" fill="black"/>
<path d="M35.1745 26.7791H34.4385V27.515H35.1745V26.7791Z" fill="black"/>
<path d="M35.1745 26.043H34.4385V26.7789H35.1745V26.043Z" fill="black"/>
<path d="M35.1745 25.3071H34.4385V26.043H35.1745V25.3071Z" fill="black"/>
<path d="M35.1745 24.5745H34.4385V25.3069H35.1745V24.5745Z" fill="white"/>
<path d="M35.1745 23.8386H34.4385V24.5745H35.1745V23.8386Z" fill="white"/>
<path d="M35.1745 23.0991H34.4385V23.835H35.1745V23.0991Z" fill="white"/>
<path d="M35.1745 22.3631H34.4385V23.099H35.1745V22.3631Z" fill="white"/>
<path d="M35.1745 21.6272H34.4385V22.3631H35.1745V21.6272Z" fill="white"/>
<path d="M35.1745 20.8914H34.4385V21.6273H35.1745V20.8914Z" fill="white"/>
<path d="M35.1745 20.1553H34.4385V20.8913H35.1745V20.1553Z" fill="white"/>
<path d="M35.1745 19.416H34.4385V20.1554H35.1745V19.416Z" fill="white"/>
<path d="M35.1745 18.6799H34.4385V19.4159H35.1745V18.6799Z" fill="black"/>
<path d="M35.1745 17.9476H34.4385V18.6836H35.1745V17.9476Z" fill="white"/>
<path d="M35.1745 17.2081H34.4385V17.944H35.1745V17.2081Z" fill="white"/>
<path d="M35.1745 16.4755H34.4385V17.2079H35.1745V16.4755Z" fill="black"/>
<path d="M35.1745 15.7397H34.4385V16.4757H35.1745V15.7397Z" fill="white"/>
<path d="M35.1745 15.0003H34.4385V15.7363H35.1745V15.0003Z" fill="black"/>
<path d="M35.1745 14.2642H34.4385V15.0002H35.1745V14.2642Z" fill="white"/>
<path d="M35.1745 13.5283H34.4385V14.2643H35.1745V13.5283Z" fill="white"/>
<path d="M34.4385 28.9902H33.7026V29.7261H34.4385V28.9902Z" fill="white"/>
<path d="M34.4385 28.2542H33.7026V28.9902H34.4385V28.2542Z" fill="white"/>
<path d="M34.4385 27.5148H33.7026V28.2542H34.4385V27.5148Z" fill="white"/>
<path d="M34.4385 26.7791H33.7026V27.515H34.4385V26.7791Z" fill="white"/>
<path d="M34.4385 26.043H33.7026V26.7789H34.4385V26.043Z" fill="white"/>
<path d="M34.4385 25.3071H33.7026V26.043H34.4385V25.3071Z" fill="white"/>
<path d="M34.4385 24.5745H33.7026V25.3069H34.4385V24.5745Z" fill="white"/>
<path d="M34.4385 23.8386H33.7026V24.5745H34.4385V23.8386Z" fill="black"/>
<path d="M34.4385 23.0991H33.7026V23.835H34.4385V23.0991Z" fill="black"/>
<path d="M34.4385 22.3631H33.7026V23.099H34.4385V22.3631Z" fill="black"/>
<path d="M34.4385 21.6272H33.7026V22.3631H34.4385V21.6272Z" fill="white"/>
<path d="M34.4385 20.8914H33.7026V21.6273H34.4385V20.8914Z" fill="white"/>
<path d="M34.4385 20.1553H33.7026V20.8913H34.4385V20.1553Z" fill="black"/>
<path d="M34.4385 19.416H33.7026V20.1554H34.4385V19.416Z" fill="black"/>
<path d="M34.4385 18.6799H33.7026V19.4159H34.4385V18.6799Z" fill="black"/>
<path d="M34.4385 17.9476H33.7026V18.6836H34.4385V17.9476Z" fill="white"/>
<path d="M34.4385 17.2081H33.7026V17.944H34.4385V17.2081Z" fill="white"/>
<path d="M34.4385 16.4755H33.7026V17.2079H34.4385V16.4755Z" fill="white"/>
<path d="M34.4385 15.7397H33.7026V16.4757H34.4385V15.7397Z" fill="white"/>
<path d="M34.4385 15.0003H33.7026V15.7363H34.4385V15.0003Z" fill="white"/>
<path d="M34.4385 14.2642H33.7026V15.0002H34.4385V14.2642Z" fill="white"/>
<path d="M34.4385 13.5283H33.7026V14.2643H34.4385V13.5283Z" fill="white"/>
<path d="M33.7026 28.9902H32.9667V29.7261H33.7026V28.9902Z" fill="white"/>
<path d="M33.7026 28.2542H32.9667V28.9902H33.7026V28.2542Z" fill="black"/>
<path d="M33.7026 27.5148H32.9667V28.2542H33.7026V27.5148Z" fill="black"/>
<path d="M33.7026 26.7791H32.9667V27.515H33.7026V26.7791Z" fill="black"/>
<path d="M33.7026 26.043H32.9667V26.7789H33.7026V26.043Z" fill="black"/>
<path d="M33.7026 25.3071H32.9667V26.043H33.7026V25.3071Z" fill="black"/>
<path d="M33.7026 24.5745H32.9667V25.3069H33.7026V24.5745Z" fill="white"/>
<path d="M33.7026 23.8386H32.9667V24.5745H33.7026V23.8386Z" fill="white"/>
<path d="M33.7026 23.0991H32.9667V23.835H33.7026V23.0991Z" fill="white"/>
<path d="M33.7026 22.3631H32.9667V23.099H33.7026V22.3631Z" fill="black"/>
<path d="M33.7026 21.6272H32.9667V22.3631H33.7026V21.6272Z" fill="white"/>
<path d="M33.7026 20.8914H32.9667V21.6273H33.7026V20.8914Z" fill="white"/>
<path d="M33.7026 20.1553H32.9667V20.8913H33.7026V20.1553Z" fill="white"/>
<path d="M33.7026 19.416H32.9667V20.1554H33.7026V19.416Z" fill="white"/>
<path d="M33.7026 18.6799H32.9667V19.4159H33.7026V18.6799Z" fill="black"/>
<path d="M33.7026 17.9476H32.9667V18.6836H33.7026V17.9476Z" fill="white"/>
<path d="M33.7026 17.2081H32.9667V17.944H33.7026V17.2081Z" fill="black"/>
<path d="M33.7026 16.4755H32.9667V17.2079H33.7026V16.4755Z" fill="black"/>
<path d="M33.7026 15.7397H32.9667V16.4757H33.7026V15.7397Z" fill="black"/>
<path d="M33.7026 15.0003H32.9667V15.7363H33.7026V15.0003Z" fill="black"/>
<path d="M33.7026 14.2642H32.9667V15.0002H33.7026V14.2642Z" fill="black"/>
<path d="M33.7026 13.5283H32.9667V14.2643H33.7026V13.5283Z" fill="white"/>
<path d="M32.9701 28.9902H32.2341V29.7261H32.9701V28.9902Z" fill="white"/>
<path d="M32.9701 28.2542H32.2341V28.9902H32.9701V28.2542Z" fill="black"/>
<path d="M32.9701 27.5148H32.2341V28.2542H32.9701V27.5148Z" fill="white"/>
<path d="M32.9701 26.7791H32.2341V27.515H32.9701V26.7791Z" fill="white"/>
<path d="M32.9701 26.043H32.2341V26.7789H32.9701V26.043Z" fill="white"/>
<path d="M32.9701 25.3071H32.2341V26.043H32.9701V25.3071Z" fill="black"/>
<path d="M32.9701 24.5745H32.2341V25.3069H32.9701V24.5745Z" fill="white"/>
<path d="M32.9701 23.8386H32.2341V24.5745H32.9701V23.8386Z" fill="white"/>
<path d="M32.9701 23.0991H32.2341V23.835H32.9701V23.0991Z" fill="white"/>
<path d="M32.9701 22.3631H32.2341V23.099H32.9701V22.3631Z" fill="black"/>
<path d="M32.9701 21.6272H32.2341V22.3631H32.9701V21.6272Z" fill="white"/>
<path d="M32.9701 20.8914H32.2341V21.6273H32.9701V20.8914Z" fill="black"/>
<path d="M32.9701 20.1553H32.2341V20.8913H32.9701V20.1553Z" fill="white"/>
<path d="M32.9701 19.416H32.2341V20.1554H32.9701V19.416Z" fill="white"/>
<path d="M32.9701 18.6799H32.2341V19.4159H32.9701V18.6799Z" fill="black"/>
<path d="M32.9701 17.9476H32.2341V18.6836H32.9701V17.9476Z" fill="white"/>
<path d="M32.9701 17.2081H32.2341V17.944H32.9701V17.2081Z" fill="black"/>
<path d="M32.9701 16.4755H32.2341V17.2079H32.9701V16.4755Z" fill="white"/>
<path d="M32.9701 15.7397H32.2341V16.4757H32.9701V15.7397Z" fill="white"/>
<path d="M32.9701 15.0003H32.2341V15.7363H32.9701V15.0003Z" fill="white"/>
<path d="M32.9701 14.2642H32.2341V15.0002H32.9701V14.2642Z" fill="black"/>
<path d="M32.9701 13.5283H32.2341V14.2643H32.9701V13.5283Z" fill="white"/>
<path d="M32.2342 28.9902H31.4983V29.7261H32.2342V28.9902Z" fill="white"/>
<path d="M32.2342 28.2542H31.4983V28.9902H32.2342V28.2542Z" fill="black"/>
<path d="M32.2342 27.5148H31.4983V28.2542H32.2342V27.5148Z" fill="white"/>
<path d="M32.2342 26.7791H31.4983V27.515H32.2342V26.7791Z" fill="black"/>
<path d="M32.2342 26.043H31.4983V26.7789H32.2342V26.043Z" fill="white"/>
<path d="M32.2342 25.3071H31.4983V26.043H32.2342V25.3071Z" fill="black"/>
<path d="M32.2342 24.5745H31.4983V25.3069H32.2342V24.5745Z" fill="white"/>
<path d="M32.2342 23.8386H31.4983V24.5745H32.2342V23.8386Z" fill="black"/>
<path d="M32.2342 23.0991H31.4983V23.835H32.2342V23.0991Z" fill="white"/>
<path d="M32.2342 22.3631H31.4983V23.099H32.2342V22.3631Z" fill="black"/>
<path d="M32.2342 21.6272H31.4983V22.3631H32.2342V21.6272Z" fill="white"/>
<path d="M32.2342 20.8914H31.4983V21.6273H32.2342V20.8914Z" fill="black"/>
<path d="M32.2342 20.1553H31.4983V20.8913H32.2342V20.1553Z" fill="white"/>
<path d="M32.2342 19.416H31.4983V20.1554H32.2342V19.416Z" fill="white"/>
<path d="M32.2342 18.6799H31.4983V19.4159H32.2342V18.6799Z" fill="white"/>
<path d="M32.2342 17.9476H31.4983V18.6836H32.2342V17.9476Z" fill="white"/>
<path d="M32.2342 17.2081H31.4983V17.944H32.2342V17.2081Z" fill="black"/>
<path d="M32.2342 16.4755H31.4983V17.2079H32.2342V16.4755Z" fill="white"/>
<path d="M32.2342 15.7397H31.4983V16.4757H32.2342V15.7397Z" fill="black"/>
<path d="M32.2342 15.0003H31.4983V15.7363H32.2342V15.0003Z" fill="white"/>
<path d="M32.2342 14.2642H31.4983V15.0002H32.2342V14.2642Z" fill="black"/>
<path d="M32.2342 13.5283H31.4983V14.2643H32.2342V13.5283Z" fill="white"/>
<path d="M31.4983 28.9902H30.7589V29.7261H31.4983V28.9902Z" fill="white"/>
<path d="M31.4983 28.2542H30.7589V28.9902H31.4983V28.2542Z" fill="black"/>
<path d="M31.4983 27.5148H30.7589V28.2542H31.4983V27.5148Z" fill="white"/>
<path d="M31.4983 26.7791H30.7589V27.515H31.4983V26.7791Z" fill="white"/>
<path d="M31.4983 26.043H30.7589V26.7789H31.4983V26.043Z" fill="white"/>
<path d="M31.4983 25.3071H30.7589V26.043H31.4983V25.3071Z" fill="black"/>
<path d="M31.4983 24.5745H30.7589V25.3069H31.4983V24.5745Z" fill="white"/>
<path d="M31.4983 23.8386H30.7589V24.5745H31.4983V23.8386Z" fill="white"/>
<path d="M31.4983 23.0991H30.7589V23.835H31.4983V23.0991Z" fill="black"/>
<path d="M31.4983 22.3631H30.7589V23.099H31.4983V22.3631Z" fill="black"/>
<path d="M31.4983 21.6272H30.7589V22.3631H31.4983V21.6272Z" fill="white"/>
<path d="M31.4983 20.8914H30.7589V21.6273H31.4983V20.8914Z" fill="black"/>
<path d="M31.4983 20.1553H30.7589V20.8913H31.4983V20.1553Z" fill="white"/>
<path d="M31.4983 19.416H30.7589V20.1554H31.4983V19.416Z" fill="black"/>
<path d="M31.4983 18.6799H30.7589V19.4159H31.4983V18.6799Z" fill="black"/>
<path d="M31.4983 17.9476H30.7589V18.6836H31.4983V17.9476Z" fill="white"/>
<path d="M31.4983 17.2081H30.7589V17.944H31.4983V17.2081Z" fill="black"/>
<path d="M31.4983 16.4755H30.7589V17.2079H31.4983V16.4755Z" fill="white"/>
<path d="M31.4983 15.7397H30.7589V16.4757H31.4983V15.7397Z" fill="white"/>
<path d="M31.4983 15.0003H30.7589V15.7363H31.4983V15.0003Z" fill="white"/>
<path d="M31.4983 14.2642H30.7589V15.0002H31.4983V14.2642Z" fill="black"/>
<path d="M31.4983 13.5283H30.7589V14.2643H31.4983V13.5283Z" fill="white"/>
<path d="M30.7589 28.9902H30.0229V29.7261H30.7589V28.9902Z" fill="white"/>
<path d="M30.7589 28.2542H30.0229V28.9902H30.7589V28.2542Z" fill="black"/>
<path d="M30.7589 27.5148H30.0229V28.2542H30.7589V27.5148Z" fill="black"/>
<path d="M30.7589 26.7791H30.0229V27.515H30.7589V26.7791Z" fill="black"/>
<path d="M30.7589 26.043H30.0229V26.7789H30.7589V26.043Z" fill="black"/>
<path d="M30.7589 25.3071H30.0229V26.043H30.7589V25.3071Z" fill="black"/>
<path d="M30.7589 24.5745H30.0229V25.3069H30.7589V24.5745Z" fill="white"/>
<path d="M30.7589 23.8386H30.0229V24.5745H30.7589V23.8386Z" fill="black"/>
<path d="M30.7589 23.0991H30.0229V23.835H30.7589V23.0991Z" fill="white"/>
<path d="M30.7589 22.3631H30.0229V23.099H30.7589V22.3631Z" fill="white"/>
<path d="M30.7589 21.6272H30.0229V22.3631H30.7589V21.6272Z" fill="black"/>
<path d="M30.7589 20.8914H30.0229V21.6273H30.7589V20.8914Z" fill="black"/>
<path d="M30.7589 20.1553H30.0229V20.8913H30.7589V20.1553Z" fill="white"/>
<path d="M30.7589 19.416H30.0229V20.1554H30.7589V19.416Z" fill="black"/>
<path d="M30.7589 18.6799H30.0229V19.4159H30.7589V18.6799Z" fill="black"/>
<path d="M30.7589 17.9476H30.0229V18.6836H30.7589V17.9476Z" fill="white"/>
<path d="M30.7589 17.2081H30.0229V17.944H30.7589V17.2081Z" fill="black"/>
<path d="M30.7589 16.4755H30.0229V17.2079H30.7589V16.4755Z" fill="black"/>
<path d="M30.7589 15.7397H30.0229V16.4757H30.7589V15.7397Z" fill="black"/>
<path d="M30.7589 15.0003H30.0229V15.7363H30.7589V15.0003Z" fill="black"/>
<path d="M30.7589 14.2642H30.0229V15.0002H30.7589V14.2642Z" fill="black"/>
<path d="M30.7589 13.5283H30.0229V14.2643H30.7589V13.5283Z" fill="white"/>
<path d="M30.0229 28.9902H29.2869V29.7261H30.0229V28.9902Z" fill="white"/>
<path d="M30.0229 28.2542H29.2869V28.9902H30.0229V28.2542Z" fill="white"/>
<path d="M30.0229 27.5148H29.2869V28.2542H30.0229V27.5148Z" fill="white"/>
<path d="M30.0229 26.7791H29.2869V27.515H30.0229V26.7791Z" fill="white"/>
<path d="M30.0229 26.043H29.2869V26.7789H30.0229V26.043Z" fill="white"/>
<path d="M30.0229 25.3071H29.2869V26.043H30.0229V25.3071Z" fill="white"/>
<path d="M30.0229 24.5745H29.2869V25.3069H30.0229V24.5745Z" fill="white"/>
<path d="M30.0229 23.8386H29.2869V24.5745H30.0229V23.8386Z" fill="white"/>
<path d="M30.0229 23.0991H29.2869V23.835H30.0229V23.0991Z" fill="white"/>
<path d="M30.0229 22.3631H29.2869V23.099H30.0229V22.3631Z" fill="white"/>
<path d="M30.0229 21.6272H29.2869V22.3631H30.0229V21.6272Z" fill="white"/>
<path d="M30.0229 20.8914H29.2869V21.6273H30.0229V20.8914Z" fill="white"/>
<path d="M30.0229 20.1553H29.2869V20.8913H30.0229V20.1553Z" fill="white"/>
<path d="M30.0229 19.416H29.2869V20.1554H30.0229V19.416Z" fill="white"/>
<path d="M30.0229 18.6799H29.2869V19.4159H30.0229V18.6799Z" fill="white"/>
<path d="M30.0229 17.9476H29.2869V18.6836H30.0229V17.9476Z" fill="white"/>
<path d="M30.0229 17.2081H29.2869V17.944H30.0229V17.2081Z" fill="white"/>
<path d="M30.0229 16.4755H29.2869V17.2079H30.0229V16.4755Z" fill="white"/>
<path d="M30.0229 15.7397H29.2869V16.4757H30.0229V15.7397Z" fill="white"/>
<path d="M30.0229 15.0003H29.2869V15.7363H30.0229V15.0003Z" fill="white"/>
<path d="M30.0229 14.2642H29.2869V15.0002H30.0229V14.2642Z" fill="white"/>
<path d="M30.0229 13.5286H29.287V14.2645H30.0229V13.5286Z" fill="white"/>
<path fill-rule="evenodd" clip-rule="evenodd" d="M27.3418 11.5865H31.0018V12.2344H27.9896V15.2813H27.3418V11.5865Z" fill="#5C9CFE"/>
<path fill-rule="evenodd" clip-rule="evenodd" d="M43.7664 11.5206H47.4263V15.2153H46.7785V12.1685H43.7664V11.5206Z" fill="#5C9CFE"/>
<path fill-rule="evenodd" clip-rule="evenodd" d="M27.3418 28.0078H27.9896V31.0547H31.0018V31.7025H27.3418V28.0078Z" fill="#5C9CFE"/>
<path fill-rule="evenodd" clip-rule="evenodd" d="M46.7785 31.1206V28.0737H47.4263V31.7684H43.7664V31.1206H46.7785Z" fill="#5C9CFE"/>
<path d="M39.8575 37.7659H27.277C26.4716 37.7659 25.819 37.1133 25.819 36.3079C25.819 35.5025 26.4716 34.8499 27.277 34.8499H39.7499" fill="#5C9CFE"/>
<path d="M39.7499 34.8499H46.4707C47.2761 34.8499 47.9287 35.5025 47.9287 36.3079C47.9287 37.1133 47.2761 37.7659 46.4707 37.7659H39.8576" fill="#9DC3FE"/>
<path d="M54.8473 22.9359C54.8473 22.9359 55.3263 23.9079 55.9582 25.4006C56.2775 26.1435 56.6351 27.0183 57.0065 27.959C57.1871 28.4312 57.3849 28.9137 57.5689 29.4136C57.7564 29.91 57.9438 30.4168 58.1313 30.9202C58.3118 31.427 58.4958 31.9339 58.6728 32.4338C58.8533 32.9336 59.0165 33.4301 59.1797 33.9057C59.506 34.8638 59.7941 35.7629 60.0302 36.537C60.5092 38.0818 60.7731 39.1337 60.7731 39.1337C60.7731 39.1337 60.294 38.1617 59.6622 36.6689C59.3428 35.926 58.9853 35.0512 58.6138 34.1105C58.4333 33.6384 58.2354 33.1558 58.0514 32.6559C57.864 32.1595 57.6765 31.6527 57.4891 31.1493C57.3086 30.6425 57.1246 30.1357 56.9475 29.6358C56.767 29.1359 56.6038 28.6395 56.4407 28.1639C56.1178 27.2057 55.8262 26.3066 55.5902 25.5325C55.1076 23.9877 54.8473 22.9359 54.8473 22.9359Z" fill="#EFAF84"/>
<path d="M50.994 21.3461L54.9757 21.6238C55.5763 21.6654 56.1144 21.8911 56.5518 22.2417C57.2461 22.8041 57.6661 23.6858 57.6002 24.6405C57.5932 24.7134 57.5897 24.7863 57.5759 24.8557L62.0471 39.6233C62.0471 39.6233 62.002 40.4217 61.9395 41.7686C61.936 41.7721 61.936 41.7721 61.936 41.7756C61.6618 47.1147 60.9883 61.1116 60.9814 69.0022C60.9779 71.1892 61.0265 72.9111 61.148 73.8449H45.2626V71.6197C45.2626 71.6162 45.2591 71.6162 45.2557 71.6128C45.2487 71.6023 45.2418 71.5989 45.2383 71.5919C41.9022 66.2042 39.7152 59.7369 39.0105 54.7901C38.9133 54.1548 38.8508 53.5438 38.8126 52.9571C38.8092 52.9398 38.8092 52.9224 38.8022 52.9016C38.7085 51.9365 38.3093 49.6037 38.0211 47.9687C37.851 47.0071 37.7191 46.2885 37.7052 46.2295C37.7052 46.226 37.7052 46.226 37.7052 46.226L32.2065 38.7276L31.474 37.7313C30.3596 36.2178 30.6929 34.0898 32.2065 32.9789C32.814 32.5311 33.5187 32.3193 34.2199 32.3193C35.2683 32.3193 36.2993 32.8019 36.9658 33.7079L38.0211 35.1521L39.8402 37.6307L40.6456 38.7276L42.5688 41.3521L44.3947 43.848C44.3947 43.848 44.4017 43.8515 44.4052 43.8619C44.5718 44.0182 46.8734 46.0767 48.7479 43.0843C48.7618 42.7858 48.7792 42.4872 48.8139 42.1956C49.3902 36.2213 53.0525 31.7674 53.0525 31.7674L51.6292 27.067L50.987 27.0219" fill="#FFC799"/>
<path d="M41.8823 80H62.3529V68.4973C57.0532 67.4214 41.8823 70.0065 41.8823 70.0065V80Z" fill="#9DC3FE"/>
<path d="M62.3529 70.8235C62.3529 70.8235 57.656 79.1997 41.8823 80H62.3529V70.8235Z" fill="#5C9CFE"/>
</svg>
