<svg width="32" height="32" viewBox="0 0 32 32" fill="none" xmlns="http://www.w3.org/2000/svg">
<path d="M12 13.3334C11.6463 13.3334 11.3072 13.4738 11.0572 13.7239C10.8071 13.9739 10.6666 14.3131 10.6666 14.6667V17.3334C10.6666 17.687 10.8071 18.0261 11.0572 18.2762C11.3072 18.5262 11.6463 18.6667 12 18.6667C12.3536 18.6667 12.6927 18.5262 12.9428 18.2762C13.1928 18.0261 13.3333 17.687 13.3333 17.3334V14.6667C13.3333 14.3131 13.1928 13.9739 12.9428 13.7239C12.6927 13.4738 12.3536 13.3334 12 13.3334ZM28 14.6667C28.3536 14.6667 28.6927 14.5262 28.9428 14.2762C29.1928 14.0261 29.3333 13.687 29.3333 13.3334V8.00002C29.3333 7.6464 29.1928 7.30726 28.9428 7.05721C28.6927 6.80716 28.3536 6.66669 28 6.66669H3.99996C3.64634 6.66669 3.3072 6.80716 3.05715 7.05721C2.8071 7.30726 2.66663 7.6464 2.66663 8.00002V13.3334C2.66663 13.687 2.8071 14.0261 3.05715 14.2762C3.3072 14.5262 3.64634 14.6667 3.99996 14.6667C4.35358 14.6667 4.69272 14.8072 4.94277 15.0572C5.19282 15.3073 5.33329 15.6464 5.33329 16C5.33329 16.3536 5.19282 16.6928 4.94277 16.9428C4.69272 17.1929 4.35358 17.3334 3.99996 17.3334C3.64634 17.3334 3.3072 17.4738 3.05715 17.7239C2.8071 17.9739 2.66663 18.3131 2.66663 18.6667V24C2.66663 24.3536 2.8071 24.6928 3.05715 24.9428C3.3072 25.1929 3.64634 25.3334 3.99996 25.3334H28C28.3536 25.3334 28.6927 25.1929 28.9428 24.9428C29.1928 24.6928 29.3333 24.3536 29.3333 24V18.6667C29.3333 18.3131 29.1928 17.9739 28.9428 17.7239C28.6927 17.4738 28.3536 17.3334 28 17.3334C27.6463 17.3334 27.3072 17.1929 27.0572 16.9428C26.8071 16.6928 26.6666 16.3536 26.6666 16C26.6666 15.6464 26.8071 15.3073 27.0572 15.0572C27.3072 14.8072 27.6463 14.6667 28 14.6667ZM26.6666 12.24C25.8944 12.5203 25.2272 13.0315 24.7558 13.7042C24.2843 14.377 24.0313 15.1785 24.0313 16C24.0313 16.8215 24.2843 17.6231 24.7558 18.2958C25.2272 18.9685 25.8944 19.4798 26.6666 19.76V22.6667H13.3333C13.3333 22.3131 13.1928 21.9739 12.9428 21.7239C12.6927 21.4738 12.3536 21.3334 12 21.3334C11.6463 21.3334 11.3072 21.4738 11.0572 21.7239C10.8071 21.9739 10.6666 22.3131 10.6666 22.6667H5.33329V19.76C6.1055 19.4798 6.77268 18.9685 7.24417 18.2958C7.71566 17.6231 7.9686 16.8215 7.9686 16C7.9686 15.1785 7.71566 14.377 7.24417 13.7042C6.77268 13.0315 6.1055 12.5203 5.33329 12.24V9.33335H10.6666C10.6666 9.68698 10.8071 10.0261 11.0572 10.2762C11.3072 10.5262 11.6463 10.6667 12 10.6667C12.3536 10.6667 12.6927 10.5262 12.9428 10.2762C13.1928 10.0261 13.3333 9.68698 13.3333 9.33335H26.6666V12.24Z" fill="#F7941E"/>
</svg>
