<svg width="20" height="20" viewBox="0 0 20 20" fill="none" xmlns="http://www.w3.org/2000/svg">
<path d="M18.3275 6.62499C18.3262 6.56483 18.3181 6.505 18.3033 6.44666C18.2975 6.42583 18.2858 6.40583 18.2783 6.38499C18.2608 6.33749 18.245 6.29083 18.22 6.24749C18.2067 6.22499 18.1883 6.20666 18.1725 6.18499C18.1458 6.14749 18.12 6.10916 18.0875 6.07666C18.0683 6.05832 18.0433 6.04332 18.0225 6.02583C17.99 5.99916 17.96 5.96999 17.9225 5.94749C17.9192 5.94499 17.915 5.94499 17.9108 5.94249L17.9042 5.93749L10.4217 1.77916C10.298 1.7106 10.159 1.67455 10.0176 1.67441C9.87621 1.67426 9.73711 1.71002 9.61332 1.77832L2.09582 5.93666C2.09332 5.93916 2.09082 5.94249 2.08666 5.94499L2.07832 5.94833C2.04916 5.96499 2.02749 5.98916 1.99999 6.00916C1.96999 6.03166 1.93832 6.05166 1.91166 6.07749C1.88666 6.10333 1.86749 6.13333 1.84582 6.16249C1.82332 6.19166 1.79832 6.21749 1.77999 6.24916C1.75832 6.28499 1.74666 6.32583 1.73082 6.36499C1.71916 6.39249 1.70416 6.41832 1.69666 6.44833C1.68226 6.50561 1.67416 6.56429 1.67249 6.62332C1.67166 6.63749 1.66666 6.64999 1.66666 6.66499V13.3333C1.66666 13.6358 1.83082 13.915 2.09582 14.0617L9.57749 18.2175L9.57832 18.2183L9.57999 18.2192L9.59666 18.2283C9.63249 18.2483 9.67166 18.2592 9.70916 18.2733C9.73582 18.2842 9.76166 18.2983 9.78999 18.3058C9.92828 18.3415 10.0734 18.3415 10.2117 18.3058C10.2392 18.2983 10.265 18.2842 10.2925 18.2733C10.33 18.2592 10.3692 18.2492 10.405 18.2283L10.4217 18.2192L10.4233 18.2183L10.4242 18.2175L17.9058 14.0617C18.1692 13.915 18.3333 13.6358 18.3333 13.3333V6.66499C18.3333 6.65083 18.3283 6.63916 18.3275 6.62499ZM9.97666 9.89332L4.21499 6.67083L6.51666 5.39749L12.2117 8.65166L9.97666 9.89332ZM10.0167 3.46082L15.7842 6.66666L13.9142 7.70582L8.22249 4.45332L10.0167 3.46082ZM10.8333 16.0842L10.835 11.3517L13.3333 9.95333V12.5L15 11.6667V9.02082L16.6667 8.08833V12.8425L10.8333 16.0842Z" fill="#FFA000"/>
</svg>
