<svg width="24" height="24" viewBox="0 0 24 24" fill="none" xmlns="http://www.w3.org/2000/svg">
<path d="M11.75 21.5C6.37391 21.5 2 17.1261 2 11.75C2 6.37391 6.37391 2 11.75 2C17.1261 2 21.5 6.37391 21.5 11.75C21.5 17.1261 17.1261 21.5 11.75 21.5ZM11.75 3.5C7.20312 3.5 3.5 7.20312 3.5 11.75C3.5 16.2969 7.20312 20 11.75 20C16.2969 20 20 16.2992 20 11.75C20 7.20078 16.2992 3.5 11.75 3.5Z" fill="#464D5D"/>
<path d="M14.922 13.4375C14.1064 13.4375 13.3184 13.0756 12.703 12.4189C12.0942 11.7586 11.7302 10.9095 11.6717 10.0133C11.6028 9.04297 11.9005 8.15 12.5098 7.49984C13.1192 6.84969 13.9709 6.5 14.922 6.5C15.8661 6.5 16.7206 6.85719 17.3281 7.50594C17.9356 8.15469 18.2408 9.05281 18.1719 10.0142C18.1123 10.9099 17.7484 11.7583 17.1406 12.4189C16.5247 13.0756 15.7372 13.4375 14.922 13.4375Z" fill="#464D5D"/>
<path d="M7.42907 13.595C6.03407 13.595 4.80735 12.3055 4.69485 10.7202C4.63719 9.90828 4.88938 9.15781 5.40595 8.60703C5.92251 8.05624 6.63501 7.76328 7.4286 7.76328C8.22219 7.76328 8.93423 8.06515 9.44751 8.61359C9.96079 9.16203 10.2209 9.91765 10.1624 10.723C10.048 12.3059 8.82173 13.595 7.42907 13.595Z" fill="#464D5D"/>
<path d="M19.4548 16.4038C19.3803 16.1834 19.1989 15.9486 18.8351 15.7259C17.7355 15.0542 16.3826 14.6989 14.922 14.6989C13.489 14.6989 12.0987 15.0692 11.0065 15.7419C9.77608 16.4999 8.9492 17.6052 8.61592 18.9378C8.53717 19.2514 8.42233 19.835 8.54514 20.1617C10.516 20.9112 12.6873 20.9456 14.6809 20.2589C16.6745 19.5722 18.364 18.208 19.4553 16.4038H19.4548Z" fill="#464D5D"/>
<path d="M7.42008 18.5642C7.75148 17.2419 8.45694 16.1394 9.55145 15.2478C9.60319 15.2051 9.64254 15.1493 9.66538 15.0863C9.68823 15.0232 9.69374 14.9552 9.68134 14.8892C9.66894 14.8233 9.63909 14.7619 9.59489 14.7115C9.55069 14.661 9.49376 14.6233 9.43005 14.6023C8.86755 14.4228 8.22538 14.3267 7.42899 14.3267C6.31244 14.3267 5.12699 14.6291 4.23498 15.1784C3.98186 15.3345 3.73342 15.3945 3.54218 15.448C4.31001 17.145 5.58335 18.5635 7.18805 19.5092L7.27196 19.5027C7.2903 19.1857 7.33992 18.8714 7.42008 18.5642Z" fill="#464D5D"/>
</svg>
