<svg width="24" height="24" viewBox="0 0 24 24" fill="none" xmlns="http://www.w3.org/2000/svg">
<path d="M4.55134 16.7903V20.9032L8.80058 19.8871L12 22.9839L15.1994 19.8871L19.4487 20.9032V16.7903L23.7479 15.7258L21.5983 11.6129L23.7479 7.50001L19.4487 6.43549V2.32259L15.1994 3.33872L12 0.241943L8.80058 3.33872L4.55134 2.32259V6.43549L0.252121 7.50001L2.40173 11.6129L0.252121 15.7258L4.55134 16.7903ZM4.30139 10.6936L3.35156 8.80646L5.05125 8.41936C5.55116 8.32259 5.94276 8.08872 6.22604 7.71775C6.50932 7.34678 6.65097 6.91936 6.65097 6.43549V4.98388L8.25068 5.41936H8.80058C9.36714 5.41936 9.86705 5.20968 10.3003 4.79033L12 3.14517L13.6997 4.79033C14.1329 5.20968 14.6329 5.41936 15.1994 5.41936C15.3994 5.41936 15.5827 5.3871 15.7493 5.32259L17.349 4.98388V6.43549C17.349 6.91936 17.4907 7.34678 17.774 7.71775C18.0572 8.08872 18.4488 8.32259 18.9487 8.41936L20.6484 8.80646L19.6986 10.6936C19.3653 11.3065 19.3653 11.9194 19.6986 12.5323L20.6484 14.4194L18.9487 14.8065C18.4488 14.9032 18.0572 15.1371 17.774 15.5081C17.4907 15.879 17.349 16.3065 17.349 16.7903V18.2419L15.7493 17.8065H15.1994C14.6329 17.8065 14.1329 18.0161 13.6997 18.4355L12 20.0807L10.3003 18.4355C9.86705 18.0161 9.36714 17.8065 8.80058 17.8065C8.60061 17.8065 8.41731 17.8387 8.25068 17.9032L6.65097 18.2419V16.7903C6.65097 16.3065 6.50932 15.879 6.22604 15.5081C5.94276 15.1371 5.55116 14.9032 5.05125 14.8065L3.35156 14.4194L4.30139 12.5323C4.63466 11.9194 4.63466 11.3065 4.30139 10.6936ZM10.9502 15.1452L15.9493 10.2581C16.4159 9.80646 16.4159 9.32259 15.9493 8.80646C15.4494 8.3871 14.9495 8.3871 14.4496 8.80646L10.9502 12.2419L9.55044 10.8871C9.05053 10.4677 8.55062 10.4677 8.05071 10.8871C7.61746 11.371 7.61746 11.8548 8.05071 12.3387L10.9502 15.1452Z" fill="#FFA000"/>
</svg>
