<svg width="20" height="20" viewBox="0 0 20 20" fill="none" xmlns="http://www.w3.org/2000/svg">
<path d="M12.3092 12.6285C12.3092 12.6285 11.2531 12.39 11.7531 11.3369C12.3708 10.5077 12.7461 9.56692 12.7761 9.25922C12.7761 9.25922 13.7269 8.51076 13.7823 7.38692C13.8415 6.26615 13.5738 6.21384 13.5738 6.21384C13.9738 4.99153 14.1031 0.403841 11.1577 0.951533C10.6669 -0.0107745 7.59 -0.76539 6.15538 1.79846C5.44076 3.07692 5.17461 4.8223 5.73307 6.24615C5.7123 6.3523 5.53538 6.1423 5.47076 6.80076C5.40846 7.43538 5.69461 8.34538 6.00538 8.76692C6.14076 8.94461 6.35692 9.07461 6.50846 9.14076C6.50846 9.14076 6.69461 10.2715 7.57692 11.3369C7.78 12.1823 6.94076 12.6285 6.94076 12.6285C4.16153 13.1631 1.60692 14.7061 1.60692 16.3754V17.6685C1.60692 19.48 5.82615 19.8685 9.62307 19.8685C13.4208 19.8685 17.6115 18.7769 17.6115 17.6685V16.3754C17.6115 14.7061 15.0869 13.1631 12.3092 12.6285ZM14.6154 18.4615H10.7692V16.1538H14.6154V18.4615Z" fill="#464D5D"/>
</svg>
